ISO-10303-21;
HEADER;
FILE_DESCRIPTION (( 'STEP AP214' ),
    '1' );
FILE_NAME ('j3_4.STEP',
    '2026-08-29T12:21:31',
    ( '' ),
    ( '' ),
    'SwSTEP 2.0',
    'SolidWorks 2024',
    '' );
FILE_SCHEMA (( 'AUTOMOTIVE_DESIGN' ));
ENDSEC;

DATA;
#1 = DIRECTION ( 'NONE',  ( 0.000000000000000000, 0.000000000000000000, -1.000000000000000000 ) ) ;
#2 = ORIENTED_EDGE ( 'NONE', *, *, #613, .T. ) ;
#3 = CARTESIAN_POINT ( 'NONE',  ( 5.500000000000002665, 0.000000000000000000, -44.50000000000000711 ) ) ;
#4 = CIRCLE ( 'NONE', #466, 1.600000000000004752 ) ;
#5 = VECTOR ( 'NONE', #45, 1000.000000000000000 ) ;
#6 = CARTESIAN_POINT ( 'NONE',  ( 20.99999999999999289, 0.000000000000000000, -1.399999999999998579 ) ) ;
#7 = EDGE_CURVE ( 'NONE', #241, #617, #631, .T. ) ;
#8 = ORIENTED_EDGE ( 'NONE', *, *, #190, .T. ) ;
#9 = CARTESIAN_POINT ( 'NONE',  ( 5.500000000000002665, 6.000000000000000000, -42.90000000000000568 ) ) ;
#10 = CARTESIAN_POINT ( 'NONE',  ( 20.99999999999999289, 6.000000000000000000, -3.000000000000000000 ) ) ;
#11 = ORIENTED_EDGE ( 'NONE', *, *, #766, .F. ) ;
#12 = LINE ( 'NONE', #679, #555 ) ;
#13 = EDGE_CURVE ( 'NONE', #373, #657, #734, .T. ) ;
#14 = CARTESIAN_POINT ( 'NONE',  ( 30.99999999999999289, 6.000000000000000000, -3.000000000000000000 ) ) ;
#15 = ORIENTED_EDGE ( 'NONE', *, *, #117, .T. ) ;
#16 = DIRECTION ( 'NONE',  ( 0.000000000000000000, 0.000000000000000000, -1.000000000000000000 ) ) ;
#17 = AXIS2_PLACEMENT_3D ( 'NONE', #59, #294, #172 ) ;
#18 = CIRCLE ( 'NONE', #30, 13.50000000000000000 ) ;
#19 = FACE_OUTER_BOUND ( 'NONE', #38, .T. ) ;
#20 = ORIENTED_EDGE ( 'NONE', *, *, #576, .F. ) ;
#21 = FACE_OUTER_BOUND ( 'NONE', #737, .T. ) ;
#22 = EDGE_CURVE ( 'NONE', #57, #428, #287, .T. ) ;
#23 = FACE_BOUND ( 'NONE', #531, .T. ) ;
#24 = DIRECTION ( 'NONE',  ( 0.000000000000000000, 1.000000000000000000, -0.000000000000000000 ) ) ;
#25 = LINE ( 'NONE', #750, #725 ) ;
#26 = CARTESIAN_POINT ( 'NONE',  ( 5.500000000000002665, 6.000000000000000000, -13.49999999999999822 ) ) ;
#27 = ORIENTED_EDGE ( 'NONE', *, *, #554, .F. ) ;
#28 = AXIS2_PLACEMENT_3D ( 'NONE', #174, #705, #641 ) ;
#29 = AXIS2_PLACEMENT_3D ( 'NONE', #226, #465, #713 ) ;
#30 = AXIS2_PLACEMENT_3D ( 'NONE', #220, #460, #230 ) ;
#31 = DIRECTION ( 'NONE',  ( -0.000000000000000000, -1.000000000000000000, -0.000000000000000000 ) ) ;
#32 = DIRECTION ( 'NONE',  ( -0.000000000000000000, -1.000000000000000000, 0.000000000000000000 ) ) ;
#33 = ADVANCED_FACE ( 'NONE', ( #282 ), #528, .F. ) ;
#34 = DIRECTION ( 'NONE',  ( -0.000000000000000000, -1.000000000000000000, 0.000000000000000000 ) ) ;
#35 = FACE_OUTER_BOUND ( 'NONE', #249, .T. ) ;
#36 = LINE ( 'NONE', #205, #480 ) ;
#37 = DIRECTION ( 'NONE',  ( 0.000000000000000000, 0.000000000000000000, -1.000000000000000000 ) ) ;
#38 = EDGE_LOOP ( 'NONE', ( #509, #8, #414, #119 ) ) ;
#39 = ADVANCED_FACE ( 'NONE', ( #606 ), #738, .F. ) ;
#40 = CARTESIAN_POINT ( 'NONE',  ( 36.49999999999999289, 0.000000000000000000, -13.49999999999999112 ) ) ;
#41 = AXIS2_PLACEMENT_3D ( 'NONE', #95, #452, #692 ) ;
#42 = DIRECTION ( 'NONE',  ( -0.000000000000000000, -1.000000000000000000, -0.000000000000000000 ) ) ;
#43 = ORIENTED_EDGE ( 'NONE', *, *, #87, .F. ) ;
#44 = CARTESIAN_POINT ( 'NONE',  ( 5.500000000000002665, 6.000000000000000000, -13.49999999999999822 ) ) ;
#45 = DIRECTION ( 'NONE',  ( -0.000000000000000000, -1.000000000000000000, -0.000000000000000000 ) ) ;
#46 = DIRECTION ( 'NONE',  ( 1.000000000000000000, -0.000000000000000000, 0.000000000000000000 ) ) ;
#47 = ORIENTED_EDGE ( 'NONE', *, *, #330, .T. ) ;
#48 = CARTESIAN_POINT ( 'NONE',  ( 10.99999999999999467, 0.000000000000000000, -3.000000000000000000 ) ) ;
#49 = DIRECTION ( 'NONE',  ( 0.000000000000000000, 1.000000000000000000, -0.000000000000000000 ) ) ;
#50 = ORIENTED_EDGE ( 'NONE', *, *, #145, .F. ) ;
#51 = ORIENTED_EDGE ( 'NONE', *, *, #233, .F. ) ;
#52 = CARTESIAN_POINT ( 'NONE',  ( 36.49999999999999289, 0.000000000000000000, -11.89999999999999325 ) ) ;
#53 = DIRECTION ( 'NONE',  ( 0.000000000000000000, 0.000000000000000000, 1.000000000000000000 ) ) ;
#54 = AXIS2_PLACEMENT_3D ( 'NONE', #580, #755, #751 ) ;
#55 = ORIENTED_EDGE ( 'NONE', *, *, #61, .F. ) ;
#56 = CIRCLE ( 'NONE', #142, 13.50000000000000000 ) ;
#57 = VERTEX_POINT ( 'NONE', #550 ) ;
#58 = EDGE_CURVE ( 'NONE', #94, #617, #615, .T. ) ;
#59 = CARTESIAN_POINT ( 'NONE',  ( 10.99999999999999467, 6.000000000000000000, -3.000000000000000000 ) ) ;
#60 = ORIENTED_EDGE ( 'NONE', *, *, #458, .F. ) ;
#61 = EDGE_CURVE ( 'NONE', #536, #363, #499, .T. ) ;
#62 = CARTESIAN_POINT ( 'NONE',  ( 10.99999999999999467, 6.000000000000000000, -1.399999999999998579 ) ) ;
#63 = VERTEX_POINT ( 'NONE', #437 ) ;
#64 = ORIENTED_EDGE ( 'NONE', *, *, #296, .T. ) ;
#65 = EDGE_CURVE ( 'NONE', #415, #243, #12, .T. ) ;
#66 = DIRECTION ( 'NONE',  ( 0.000000000000000000, 1.000000000000000000, -0.000000000000000000 ) ) ;
#67 = ORIENTED_EDGE ( 'NONE', *, *, #7, .T. ) ;
#68 = CARTESIAN_POINT ( 'NONE',  ( 5.500000000000002665, 6.000000000000000000, -42.90000000000000568 ) ) ;
#69 = CIRCLE ( 'NONE', #671, 13.50000000000000000 ) ;
#70 = CARTESIAN_POINT ( 'NONE',  ( 42.00000000000000000, 0.000000000000000000, 0.000000000000000000 ) ) ;
#71 = EDGE_LOOP ( 'NONE', ( #235, #543 ) ) ;
#72 = CARTESIAN_POINT ( 'NONE',  ( 10.99999999999999467, 6.000000000000000000, -3.000000000000000000 ) ) ;
#73 = DIRECTION ( 'NONE',  ( 0.000000000000000000, 0.000000000000000000, 1.000000000000000000 ) ) ;
#74 = EDGE_LOOP ( 'NONE', ( #286, #218 ) ) ;
#75 = DIRECTION ( 'NONE',  ( 1.000000000000000000, -0.000000000000000000, 0.000000000000000000 ) ) ;
#76 = DIRECTION ( 'NONE',  ( 0.000000000000000000, 0.000000000000000000, -1.000000000000000000 ) ) ;
#77 = ORIENTED_EDGE ( 'NONE', *, *, #22, .F. ) ;
#78 = DIRECTION ( 'NONE',  ( -0.000000000000000000, -1.000000000000000000, 0.000000000000000000 ) ) ;
#79 = AXIS2_PLACEMENT_3D ( 'NONE', #48, #534, #655 ) ;
#80 = ADVANCED_FACE ( 'NONE', ( #730 ), #374, .F. ) ;
#81 = VECTOR ( 'NONE', #138, 1000.000000000000000 ) ;
#82 = DIRECTION ( 'NONE',  ( 0.000000000000000000, 0.000000000000000000, -1.000000000000000000 ) ) ;
#83 = DIRECTION ( 'NONE',  ( 0.000000000000000000, 1.000000000000000000, -0.000000000000000000 ) ) ;
#84 = FACE_BOUND ( 'NONE', #74, .T. ) ;
#85 = ORIENTED_EDGE ( 'NONE', *, *, #13, .T. ) ;
#86 = DIRECTION ( 'NONE',  ( 0.000000000000000000, 1.000000000000000000, -0.000000000000000000 ) ) ;
#87 = EDGE_CURVE ( 'NONE', #370, #654, #176, .T. ) ;
#88 = FACE_BOUND ( 'NONE', #603, .T. ) ;
#89 =( GEOMETRIC_REPRESENTATION_CONTEXT ( 3 ) GLOBAL_UNCERTAINTY_ASSIGNED_CONTEXT ( ( #198 ) ) GLOBAL_UNIT_ASSIGNED_CONTEXT ( ( #406, #110, #275 ) ) REPRESENTATION_CONTEXT ( 'NONE', 'WORKASPACE' ) );
#90 = AXIS2_PLACEMENT_3D ( 'NONE', #368, #311, #304 ) ;
#91 = LINE ( 'NONE', #574, #582 ) ;
#92 = EDGE_CURVE ( 'NONE', #518, #539, #246, .T. ) ;
#93 = CARTESIAN_POINT ( 'NONE',  ( 20.99999999999999289, 6.000000000000000000, -3.000000000000000000 ) ) ;
#94 = VERTEX_POINT ( 'NONE', #9 ) ;
#95 = CARTESIAN_POINT ( 'NONE',  ( 5.500000000000002665, 0.000000000000000000, -13.49999999999999822 ) ) ;
#96 = DIRECTION ( 'NONE',  ( 0.000000000000000000, 0.000000000000000000, 1.000000000000000000 ) ) ;
#97 = CARTESIAN_POINT ( 'NONE',  ( 5.500000000000002665, 6.000000000000000000, -46.10000000000000142 ) ) ;
#98 = PRODUCT_DEFINITION_SHAPE ( 'NONE', 'NONE',  #420 ) ;
#99 = AXIS2_PLACEMENT_3D ( 'NONE', #289, #348, #714 ) ;
#100 = AXIS2_PLACEMENT_3D ( 'NONE', #137, #310, #502 ) ;
#101 = DIRECTION ( 'NONE',  ( -0.000000000000000000, -1.000000000000000000, 0.000000000000000000 ) ) ;
#102 = VECTOR ( 'NONE', #566, 1000.000000000000000 ) ;
#103 = PLANE ( 'NONE',  #445 ) ;
#104 = EDGE_LOOP ( 'NONE', ( #302, #732 ) ) ;
#105 = DIRECTION ( 'NONE',  ( 0.000000000000000000, 1.000000000000000000, -0.000000000000000000 ) ) ;
#106 = ORIENTED_EDGE ( 'NONE', *, *, #280, .T. ) ;
#107 = FACE_OUTER_BOUND ( 'NONE', #605, .T. ) ;
#108 = CARTESIAN_POINT ( 'NONE',  ( 10.99999999999999467, 6.000000000000000000, -4.600000000000001421 ) ) ;
#109 = ORIENTED_EDGE ( 'NONE', *, *, #92, .T. ) ;
#110 =( NAMED_UNIT ( * ) PLANE_ANGLE_UNIT ( ) SI_UNIT ( $, .RADIAN. ) );
#111 = EDGE_CURVE ( 'NONE', #57, #125, #618, .T. ) ;
#112 = LINE ( 'NONE', #131, #517 ) ;
#113 = ORIENTED_EDGE ( 'NONE', *, *, #65, .T. ) ;
#114 = CARTESIAN_POINT ( 'NONE',  ( 30.99999999999999289, 6.000000000000000000, -1.399999999999995248 ) ) ;
#115 = CARTESIAN_POINT ( 'NONE',  ( 30.99999999999999289, 0.000000000000000000, -3.000000000000000000 ) ) ;
#116 = CIRCLE ( 'NONE', #672, 1.599999999999997202 ) ;
#117 = EDGE_CURVE ( 'NONE', #292, #188, #261, .T. ) ;
#118 = STYLED_ITEM ( 'NONE', ( #535 ), #471 ) ;
#119 = ORIENTED_EDGE ( 'NONE', *, *, #426, .F. ) ;
#120 = DIRECTION ( 'NONE',  ( 0.000000000000000000, 0.000000000000000000, 1.000000000000000000 ) ) ;
#121 = ORIENTED_EDGE ( 'NONE', *, *, #65, .F. ) ;
#122 = ORIENTED_EDGE ( 'NONE', *, *, #412, .T. ) ;
#123 = ADVANCED_FACE ( 'NONE', ( #197 ), #371, .F. ) ;
#124 = CARTESIAN_POINT ( 'NONE',  ( 20.99999999999328892, 0.000000000000000000, -15.49999999999818101 ) ) ;
#125 = VERTEX_POINT ( 'NONE', #744 ) ;
#126 = CARTESIAN_POINT ( 'NONE',  ( 10.99999999999999467, 0.000000000000000000, -1.399999999999998579 ) ) ;
#127 = DIRECTION ( 'NONE',  ( 0.000000000000000000, 0.000000000000000000, 1.000000000000000000 ) ) ;
#128 = ORIENTED_EDGE ( 'NONE', *, *, #576, .T. ) ;
#129 = CARTESIAN_POINT ( 'NONE',  ( 10.99999999999999467, 0.000000000000000000, -3.000000000000000000 ) ) ;
#130 = CIRCLE ( 'NONE', #17, 1.600000000000001643 ) ;
#131 = CARTESIAN_POINT ( 'NONE',  ( 36.49999999999999289, 6.000000000000000000, -46.10000000000000853 ) ) ;
#132 = ORIENTED_EDGE ( 'NONE', *, *, #439, .F. ) ;
#133 = DIRECTION ( 'NONE',  ( -0.000000000000000000, -1.000000000000000000, -0.000000000000000000 ) ) ;
#134 = CYLINDRICAL_SURFACE ( 'NONE', #467, 13.49999999999999822 ) ;
#135 = ADVANCED_FACE ( 'NONE', ( #490 ), #140, .F. ) ;
#136 = ORIENTED_EDGE ( 'NONE', *, *, #702, .T. ) ;
#137 = CARTESIAN_POINT ( 'NONE',  ( 0.000000000000000000, 6.000000000000000000, 0.000000000000000000 ) ) ;
#138 = DIRECTION ( 'NONE',  ( 1.000000000000000000, -0.000000000000000000, 0.000000000000000000 ) ) ;
#139 = ORIENTED_EDGE ( 'NONE', *, *, #601, .F. ) ;
#140 = PLANE ( 'NONE',  #165 ) ;
#141 = AXIS2_PLACEMENT_3D ( 'NONE', #561, #24, #667 ) ;
#142 = AXIS2_PLACEMENT_3D ( 'NONE', #308, #668, #127 ) ;
#143 = CARTESIAN_POINT ( 'NONE',  ( 20.99999999999328892, 0.000000000000000000, -28.99999999999818101 ) ) ;
#144 = FACE_BOUND ( 'NONE', #456, .T. ) ;
#145 = EDGE_CURVE ( 'NONE', #536, #586, #116, .T. ) ;
#146 = DIRECTION ( 'NONE',  ( -0.000000000000000000, -1.000000000000000000, -0.000000000000000000 ) ) ;
#147 = FACE_BOUND ( 'NONE', #104, .T. ) ;
#148 = ORIENTED_EDGE ( 'NONE', *, *, #559, .F. ) ;
#149 = DIRECTION ( 'NONE',  ( 0.000000000000000000, 0.000000000000000000, -1.000000000000000000 ) ) ;
#150 = DIRECTION ( 'NONE',  ( 0.000000000000000000, 0.000000000000000000, 1.000000000000000000 ) ) ;
#151 = EDGE_LOOP ( 'NONE', ( #600, #700, #207, #128 ) ) ;
#152 = VECTOR ( 'NONE', #337, 1000.000000000000000 ) ;
#153 = AXIS2_PLACEMENT_3D ( 'NONE', #530, #401, #53 ) ;
#154 = FACE_BOUND ( 'NONE', #678, .T. ) ;
#155 = CARTESIAN_POINT ( 'NONE',  ( 20.99999999999328892, 6.000000000000000000, -15.49999999999818101 ) ) ;
#156 = SHAPE_DEFINITION_REPRESENTATION ( #98, #501 ) ;
#157 = DIRECTION ( 'NONE',  ( -0.000000000000000000, -1.000000000000000000, -0.000000000000000000 ) ) ;
#158 = DIRECTION ( 'NONE',  ( -0.000000000000000000, -1.000000000000000000, -0.000000000000000000 ) ) ;
#159 = ADVANCED_FACE ( 'NONE', ( #21 ), #254, .F. ) ;
#160 = VERTEX_POINT ( 'NONE', #429 ) ;
#161 = VERTEX_POINT ( 'NONE', #189 ) ;
#162 = FACE_OUTER_BOUND ( 'NONE', #704, .T. ) ;
#163 = DIRECTION ( 'NONE',  ( 0.000000000000000000, 0.000000000000000000, 1.000000000000000000 ) ) ;
#164 = ORIENTED_EDGE ( 'NONE', *, *, #458, .T. ) ;
#165 = AXIS2_PLACEMENT_3D ( 'NONE', #186, #670, #733 ) ;
#166 = AXIS2_PLACEMENT_3D ( 'NONE', #665, #556, #680 ) ;
#167 = DIRECTION ( 'NONE',  ( -0.000000000000000000, -1.000000000000000000, -0.000000000000000000 ) ) ;
#168 = ORIENTED_EDGE ( 'NONE', *, *, #637, .F. ) ;
#169 = ORIENTED_EDGE ( 'NONE', *, *, #58, .T. ) ;
#170 = EDGE_CURVE ( 'NONE', #125, #478, #623, .T. ) ;
#171 = DIRECTION ( 'NONE',  ( -0.000000000000000000, -1.000000000000000000, -0.000000000000000000 ) ) ;
#172 = DIRECTION ( 'NONE',  ( 0.000000000000000000, 0.000000000000000000, 1.000000000000000000 ) ) ;
#173 = ORIENTED_EDGE ( 'NONE', *, *, #590, .F. ) ;
#174 = CARTESIAN_POINT ( 'NONE',  ( 0.000000000000000000, 0.000000000000000000, 0.000000000000000000 ) ) ;
#175 = VERTEX_POINT ( 'NONE', #319 ) ;
#176 = CIRCLE ( 'NONE', #338, 1.600000000000001643 ) ;
#177 = FACE_OUTER_BOUND ( 'NONE', #740, .T. ) ;
#178 = CIRCLE ( 'NONE', #166, 1.600000000000001643 ) ;
#179 = EDGE_CURVE ( 'NONE', #756, #160, #479, .T. ) ;
#180 = ORIENTED_EDGE ( 'NONE', *, *, #256, .T. ) ;
#181 = ORIENTED_EDGE ( 'NONE', *, *, #334, .T. ) ;
#182 = CARTESIAN_POINT ( 'NONE',  ( 10.99999999999999467, 6.000000000000000000, -3.000000000000000000 ) ) ;
#183 = ORIENTED_EDGE ( 'NONE', *, *, #330, .F. ) ;
#184 = FACE_OUTER_BOUND ( 'NONE', #277, .T. ) ;
#185 = ORIENTED_EDGE ( 'NONE', *, *, #385, .T. ) ;
#186 = CARTESIAN_POINT ( 'NONE',  ( 42.00000000000000000, 6.000000000000000000, 0.000000000000000000 ) ) ;
#187 = CARTESIAN_POINT ( 'NONE',  ( 0.000000000000000000, 0.000000000000000000, -50.00000000000000000 ) ) ;
#188 = VERTEX_POINT ( 'NONE', #126 ) ;
#189 = CARTESIAN_POINT ( 'NONE',  ( 36.49999999999999289, 6.000000000000000000, -46.10000000000000853 ) ) ;
#190 = EDGE_CURVE ( 'NONE', #657, #373, #711, .T. ) ;
#191 = CYLINDRICAL_SURFACE ( 'NONE', #432, 1.600000000000001643 ) ;
#192 = ORIENTED_EDGE ( 'NONE', *, *, #190, .F. ) ;
#193 = DIRECTION ( 'NONE',  ( -0.000000000000000000, -1.000000000000000000, -0.000000000000000000 ) ) ;
#194 = ADVANCED_FACE ( 'NONE', ( #333 ), #200, .F. ) ;
#195 = CARTESIAN_POINT ( 'NONE',  ( 5.500000000000002665, 6.000000000000000000, -44.50000000000000711 ) ) ;
#196 = ORIENTED_EDGE ( 'NONE', *, *, #22, .T. ) ;
#197 = FACE_OUTER_BOUND ( 'NONE', #409, .T. ) ;
#198 = UNCERTAINTY_MEASURE_WITH_UNIT (LENGTH_MEASURE( 1.000000000000000082E-05 ), #406, 'distance_accuracy_value', 'NONE');
#199 = CARTESIAN_POINT ( 'NONE',  ( 36.49999999999999289, 6.000000000000000000, -44.50000000000001421 ) ) ;
#200 = CYLINDRICAL_SURFACE ( 'NONE', #212, 1.600000000000001643 ) ;
#201 = ADVANCED_FACE ( 'NONE', ( #35 ), #507, .F. ) ;
#202 = AXIS2_PLACEMENT_3D ( 'NONE', #329, #515, #37 ) ;
#203 = CARTESIAN_POINT ( 'NONE',  ( 36.49999999999999289, 6.000000000000000000, -11.89999999999999325 ) ) ;
#204 = CARTESIAN_POINT ( 'NONE',  ( 36.49999999999999289, 0.000000000000000000, -42.90000000000001279 ) ) ;
#205 = CARTESIAN_POINT ( 'NONE',  ( 42.00000000000000000, 6.000000000000000000, -50.00000000000000000 ) ) ;
#206 = DIRECTION ( 'NONE',  ( 0.000000000000000000, 1.000000000000000000, -0.000000000000000000 ) ) ;
#207 = ORIENTED_EDGE ( 'NONE', *, *, #559, .T. ) ;
#208 = FACE_BOUND ( 'NONE', #354, .T. ) ;
#209 = PLANE ( 'NONE',  #238 ) ;
#210 = VECTOR ( 'NONE', #146, 1000.000000000000000 ) ;
#211 = EDGE_LOOP ( 'NONE', ( #106, #169, #265, #690 ) ) ;
#212 = AXIS2_PLACEMENT_3D ( 'NONE', #93, #264, #387 ) ;
#213 = CIRCLE ( 'NONE', #315, 1.599999999999997202 ) ;
#214 = DIRECTION ( 'NONE',  ( 0.000000000000000000, 0.000000000000000000, 1.000000000000000000 ) ) ;
#215 = EDGE_CURVE ( 'NONE', #373, #175, #698, .T. ) ;
#216 = CARTESIAN_POINT ( 'NONE',  ( 30.99999999999999289, 6.000000000000000000, -4.600000000000004974 ) ) ;
#217 = EDGE_LOOP ( 'NONE', ( #196, #335, #121, #148 ) ) ;
#218 = ORIENTED_EDGE ( 'NONE', *, *, #496, .F. ) ;
#219 = DIRECTION ( 'NONE',  ( 0.000000000000000000, 0.000000000000000000, -1.000000000000000000 ) ) ;
#220 = CARTESIAN_POINT ( 'NONE',  ( 20.99999999999328892, 6.000000000000000000, -28.99999999999818101 ) ) ;
#221 = ORIENTED_EDGE ( 'NONE', *, *, #637, .T. ) ;
#222 = VERTEX_POINT ( 'NONE', #155 ) ;
#223 = CARTESIAN_POINT ( 'NONE',  ( 20.99999999999328892, 6.000000000000000000, -42.49999999999818101 ) ) ;
#224 = SURFACE_STYLE_FILL_AREA ( #769 ) ;
#225 = ORIENTED_EDGE ( 'NONE', *, *, #342, .F. ) ;
#226 = CARTESIAN_POINT ( 'NONE',  ( 20.99999999999328892, 6.000000000000000000, -28.99999999999818101 ) ) ;
#227 = ADVANCED_FACE ( 'NONE', ( #444 ), #693, .F. ) ;
#228 = CIRCLE ( 'NONE', #79, 1.600000000000001643 ) ;
#229 = CIRCLE ( 'NONE', #660, 1.600000000000004752 ) ;
#230 = DIRECTION ( 'NONE',  ( 0.000000000000000000, 0.000000000000000000, 1.000000000000000000 ) ) ;
#231 = VERTEX_POINT ( 'NONE', #450 ) ;
#232 = ORIENTED_EDGE ( 'NONE', *, *, #117, .F. ) ;
#233 = EDGE_CURVE ( 'NONE', #586, #536, #300, .T. ) ;
#234 = CARTESIAN_POINT ( 'NONE',  ( 0.000000000000000000, 6.000000000000000000, -50.00000000000000000 ) ) ;
#235 = ORIENTED_EDGE ( 'NONE', *, *, #664, .T. ) ;
#236 = CARTESIAN_POINT ( 'NONE',  ( 20.99999999999999289, 6.000000000000000000, -4.600000000000001421 ) ) ;
#237 = EDGE_LOOP ( 'NONE', ( #577, #331 ) ) ;
#238 = AXIS2_PLACEMENT_3D ( 'NONE', #626, #748, #632 ) ;
#239 =( NAMED_UNIT ( * ) SI_UNIT ( $, .STERADIAN. ) SOLID_ANGLE_UNIT ( ) );
#240 = CIRCLE ( 'NONE', #90, 1.599999999999997202 ) ;
#241 = VERTEX_POINT ( 'NONE', #389 ) ;
#242 = DIRECTION ( 'NONE',  ( 0.000000000000000000, 1.000000000000000000, -0.000000000000000000 ) ) ;
#243 = VERTEX_POINT ( 'NONE', #393 ) ;
#244 = CARTESIAN_POINT ( 'NONE',  ( 0.000000000000000000, 6.000000000000000000, 0.000000000000000000 ) ) ;
#245 = EDGE_LOOP ( 'NONE', ( #43, #225 ) ) ;
#246 = LINE ( 'NONE', #487, #620 ) ;
#247 = EDGE_CURVE ( 'NONE', #288, #253, #724, .T. ) ;
#248 = DIRECTION ( 'NONE',  ( -0.000000000000000000, -1.000000000000000000, -0.000000000000000000 ) ) ;
#249 = EDGE_LOOP ( 'NONE', ( #50, #464, #726, #183 ) ) ;
#250 = DIRECTION ( 'NONE',  ( 0.000000000000000000, 1.000000000000000000, -0.000000000000000000 ) ) ;
#251 = AXIS2_PLACEMENT_3D ( 'NONE', #761, #32, #150 ) ;
#252 = DIRECTION ( 'NONE',  ( -0.000000000000000000, -1.000000000000000000, -0.000000000000000000 ) ) ;
#253 = VERTEX_POINT ( 'NONE', #204 ) ;
#254 = CYLINDRICAL_SURFACE ( 'NONE', #607, 1.599999999999997202 ) ;
#255 = CARTESIAN_POINT ( 'NONE',  ( 20.99999999999999289, 6.000000000000000000, -1.399999999999998579 ) ) ;
#256 = EDGE_CURVE ( 'NONE', #778, #524, #267, .T. ) ;
#257 = DIRECTION ( 'NONE',  ( 0.000000000000000000, 0.000000000000000000, -1.000000000000000000 ) ) ;
#258 = FACE_BOUND ( 'NONE', #293, .T. ) ;
#259 = EDGE_CURVE ( 'NONE', #675, #756, #459, .T. ) ;
#260 = FACE_OUTER_BOUND ( 'NONE', #217, .T. ) ;
#261 = CIRCLE ( 'NONE', #567, 1.600000000000001643 ) ;
#262 =( GEOMETRIC_REPRESENTATION_CONTEXT ( 3 ) GLOBAL_UNCERTAINTY_ASSIGNED_CONTEXT ( ( #463 ) ) GLOBAL_UNIT_ASSIGNED_CONTEXT ( ( #488, #551, #239 ) ) REPRESENTATION_CONTEXT ( 'NONE', 'WORKASPACE' ) );
#263 = DIRECTION ( 'NONE',  ( -0.000000000000000000, -1.000000000000000000, -0.000000000000000000 ) ) ;
#264 = DIRECTION ( 'NONE',  ( -0.000000000000000000, -1.000000000000000000, -0.000000000000000000 ) ) ;
#265 = ORIENTED_EDGE ( 'NONE', *, *, #7, .F. ) ;
#266 = CARTESIAN_POINT ( 'NONE',  ( 20.99999999999328892, 6.000000000000000000, -15.49999999999818101 ) ) ;
#267 = LINE ( 'NONE', #216, #658 ) ;
#268 = ADVANCED_FACE ( 'NONE', ( #396 ), #209, .T. ) ;
#269 = ORIENTED_EDGE ( 'NONE', *, *, #731, .F. ) ;
#270 = DIRECTION ( 'NONE',  ( 0.000000000000000000, 0.000000000000000000, 1.000000000000000000 ) ) ;
#271 = CARTESIAN_POINT ( 'NONE',  ( 36.49999999999999289, 6.000000000000000000, -11.89999999999999325 ) ) ;
#272 = VECTOR ( 'NONE', #46, 1000.000000000000000 ) ;
#273 = AXIS2_PLACEMENT_3D ( 'NONE', #630, #571, #625 ) ;
#274 = AXIS2_PLACEMENT_3D ( 'NONE', #520, #101, #410 ) ;
#275 =( NAMED_UNIT ( * ) SI_UNIT ( $, .STERADIAN. ) SOLID_ANGLE_UNIT ( ) );
#276 = DIRECTION ( 'NONE',  ( -0.000000000000000000, -1.000000000000000000, -0.000000000000000000 ) ) ;
#277 = EDGE_LOOP ( 'NONE', ( #774, #614, #295, #483 ) ) ;
#278 = EDGE_LOOP ( 'NONE', ( #390, #486, #662, #722 ) ) ;
#279 = CARTESIAN_POINT ( 'NONE',  ( 30.99999999999999289, 6.000000000000000000, -1.399999999999995248 ) ) ;
#280 = EDGE_CURVE ( 'NONE', #753, #94, #758, .T. ) ;
#281 = DIRECTION ( 'NONE',  ( -0.000000000000000000, -1.000000000000000000, -0.000000000000000000 ) ) ;
#282 = FACE_OUTER_BOUND ( 'NONE', #542, .T. ) ;
#283 = ORIENTED_EDGE ( 'NONE', *, *, #404, .F. ) ;
#284 = CARTESIAN_POINT ( 'NONE',  ( 30.99999999999999289, 6.000000000000000000, -4.600000000000004974 ) ) ;
#285 = CARTESIAN_POINT ( 'NONE',  ( 5.500000000000002665, 6.000000000000000000, -15.09999999999999609 ) ) ;
#286 = ORIENTED_EDGE ( 'NONE', *, *, #448, .F. ) ;
#287 = LINE ( 'NONE', #587, #272 ) ;
#288 = VERTEX_POINT ( 'NONE', #689 ) ;
#289 = CARTESIAN_POINT ( 'NONE',  ( 30.99999999999999289, 0.000000000000000000, -3.000000000000000000 ) ) ;
#290 = VECTOR ( 'NONE', #167, 1000.000000000000000 ) ;
#291 = SURFACE_STYLE_USAGE ( .BOTH. , #352 ) ;
#292 = VERTEX_POINT ( 'NONE', #636 ) ;
#293 = EDGE_LOOP ( 'NONE', ( #347, #181 ) ) ;
#294 = DIRECTION ( 'NONE',  ( 0.000000000000000000, 1.000000000000000000, -0.000000000000000000 ) ) ;
#295 = ORIENTED_EDGE ( 'NONE', *, *, #708, .F. ) ;
#296 = EDGE_CURVE ( 'NONE', #753, #241, #639, .T. ) ;
#297 = DIRECTION ( 'NONE',  ( 0.000000000000000000, 0.000000000000000000, 1.000000000000000000 ) ) ;
#298 = ORIENTED_EDGE ( 'NONE', *, *, #752, .F. ) ;
#299 = ORIENTED_EDGE ( 'NONE', *, *, #256, .F. ) ;
#300 = CIRCLE ( 'NONE', #251, 1.599999999999997202 ) ;
#301 = CIRCLE ( 'NONE', #746, 1.599999999999997202 ) ;
#302 = ORIENTED_EDGE ( 'NONE', *, *, #451, .F. ) ;
#303 = DIRECTION ( 'NONE',  ( 0.000000000000000000, 0.000000000000000000, 1.000000000000000000 ) ) ;
#304 = DIRECTION ( 'NONE',  ( 0.000000000000000000, 0.000000000000000000, 1.000000000000000000 ) ) ;
#305 = EDGE_CURVE ( 'NONE', #428, #243, #511, .T. ) ;
#306 = ORIENTED_EDGE ( 'NONE', *, *, #215, .F. ) ;
#307 = DIRECTION ( 'NONE',  ( -0.000000000000000000, -1.000000000000000000, -0.000000000000000000 ) ) ;
#308 = CARTESIAN_POINT ( 'NONE',  ( 20.99999999999328892, 6.000000000000000000, -28.99999999999818101 ) ) ;
#309 = ORIENTED_EDGE ( 'NONE', *, *, #496, .T. ) ;
#310 = DIRECTION ( 'NONE',  ( 0.000000000000000000, 0.000000000000000000, -1.000000000000000000 ) ) ;
#311 = DIRECTION ( 'NONE',  ( -0.000000000000000000, -1.000000000000000000, 0.000000000000000000 ) ) ;
#312 = VECTOR ( 'NONE', #82, 1000.000000000000000 ) ;
#313 = ORIENTED_EDGE ( 'NONE', *, *, #280, .F. ) ;
#314 = DIRECTION ( 'NONE',  ( 0.000000000000000000, 0.000000000000000000, -1.000000000000000000 ) ) ;
#315 = AXIS2_PLACEMENT_3D ( 'NONE', #653, #413, #469 ) ;
#316 = CIRCLE ( 'NONE', #417, 1.600000000000001643 ) ;
#317 = ADVANCED_FACE ( 'NONE', ( #84, #454, #144, #564, #260, #88, #504, #147, #628 ), #324, .T. ) ;
#318 = FACE_BOUND ( 'NONE', #634, .T. ) ;
#319 = CARTESIAN_POINT ( 'NONE',  ( 20.99999999999999289, 0.000000000000000000, -4.600000000000001421 ) ) ;
#320 = PRODUCT_RELATED_PRODUCT_CATEGORY ( 'part', '', ( #578 ) ) ;
#321 = DIRECTION ( 'NONE',  ( 1.000000000000000000, -0.000000000000000000, 0.000000000000000000 ) ) ;
#322 = DIRECTION ( 'NONE',  ( 0.000000000000000000, 0.000000000000000000, 1.000000000000000000 ) ) ;
#323 = CARTESIAN_POINT ( 'NONE',  ( 36.49999999999999289, 6.000000000000000000, -42.90000000000001279 ) ) ;
#324 = PLANE ( 'NONE',  #355 ) ;
#325 = CIRCLE ( 'NONE', #99, 1.600000000000004752 ) ;
#326 = CLOSED_SHELL ( 'NONE', ( #201, #33, #227, #521, #194, #123, #508, #563, #39, #135, #268, #619, #80, #392, #366, #505, #776, #159, #540, #757, #317, #652 ) ) ;
#327 = MECHANICAL_DESIGN_GEOMETRIC_PRESENTATION_REPRESENTATION (  '', ( #118 ), #262 ) ;
#328 = CARTESIAN_POINT ( 'NONE',  ( 20.99999999999328892, 6.000000000000000000, -42.49999999999818101 ) ) ;
#329 = CARTESIAN_POINT ( 'NONE',  ( 36.49999999999999289, 6.000000000000000000, -44.50000000000001421 ) ) ;
#330 = EDGE_CURVE ( 'NONE', #586, #538, #598, .T. ) ;
#331 = ORIENTED_EDGE ( 'NONE', *, *, #532, .T. ) ;
#332 = DIRECTION ( 'NONE',  ( 0.000000000000000000, 1.000000000000000000, -0.000000000000000000 ) ) ;
#333 = FACE_OUTER_BOUND ( 'NONE', #474, .T. ) ;
#334 = EDGE_CURVE ( 'NONE', #63, #524, #4, .T. ) ;
#335 = ORIENTED_EDGE ( 'NONE', *, *, #305, .T. ) ;
#336 = APPLICATION_PROTOCOL_DEFINITION ( 'draft international standard', 'automotive_design', 1998, #378 ) ;
#337 = DIRECTION ( 'NONE',  ( -0.000000000000000000, -1.000000000000000000, -0.000000000000000000 ) ) ;
#338 = AXIS2_PLACEMENT_3D ( 'NONE', #72, #250, #303 ) ;
#339 = PRODUCT_CONTEXT ( 'NONE', #378, 'mechanical' ) ;
#340 = ORIENTED_EDGE ( 'NONE', *, *, #233, .T. ) ;
#341 = AXIS2_PLACEMENT_3D ( 'NONE', #199, #34, #270 ) ;
#342 = EDGE_CURVE ( 'NONE', #654, #370, #130, .T. ) ;
#343 = LINE ( 'NONE', #114, #771 ) ;
#344 = LINE ( 'NONE', #62, #290 ) ;
#345 = EDGE_LOOP ( 'NONE', ( #723, #192 ) ) ;
#346 = DIRECTION ( 'NONE',  ( 0.000000000000000000, 0.000000000000000000, 1.000000000000000000 ) ) ;
#347 = ORIENTED_EDGE ( 'NONE', *, *, #719, .T. ) ;
#348 = DIRECTION ( 'NONE',  ( 0.000000000000000000, 1.000000000000000000, -0.000000000000000000 ) ) ;
#349 = FACE_OUTER_BOUND ( 'NONE', #151, .T. ) ;
#350 = ORIENTED_EDGE ( 'NONE', *, *, #482, .F. ) ;
#351 = DIRECTION ( 'NONE',  ( -0.000000000000000000, -1.000000000000000000, -0.000000000000000000 ) ) ;
#352 = SURFACE_SIDE_STYLE ('',( #224 ) ) ;
#353 = ORIENTED_EDGE ( 'NONE', *, *, #399, .T. ) ;
#354 = EDGE_LOOP ( 'NONE', ( #67, #164 ) ) ;
#355 = AXIS2_PLACEMENT_3D ( 'NONE', #569, #49, #585 ) ;
#356 = AXIS2_PLACEMENT_3D ( 'NONE', #777, #419, #717 ) ;
#357 = CARTESIAN_POINT ( 'NONE',  ( 20.99999999999999289, 0.000000000000000000, -3.000000000000000000 ) ) ;
#358 = ORIENTED_EDGE ( 'NONE', *, *, #426, .T. ) ;
#359 = ORIENTED_EDGE ( 'NONE', *, *, #399, .F. ) ;
#360 = EDGE_CURVE ( 'NONE', #428, #518, #775, .T. ) ;
#361 = DIRECTION ( 'NONE',  ( -0.000000000000000000, -1.000000000000000000, -0.000000000000000000 ) ) ;
#362 = EDGE_LOOP ( 'NONE', ( #592, #402 ) ) ;
#363 = VERTEX_POINT ( 'NONE', #462 ) ;
#364 = ORIENTED_EDGE ( 'NONE', *, *, #482, .T. ) ;
#365 = CARTESIAN_POINT ( 'NONE',  ( 20.99999999999999289, 6.000000000000000000, -3.000000000000000000 ) ) ;
#366 = ADVANCED_FACE ( 'NONE', ( #349 ), #103, .T. ) ;
#367 = AXIS2_PLACEMENT_3D ( 'NONE', #398, #206, #322 ) ;
#368 = CARTESIAN_POINT ( 'NONE',  ( 36.49999999999999289, 6.000000000000000000, -44.50000000000001421 ) ) ;
#369 = CIRCLE ( 'NONE', #153, 1.599999999999997202 ) ;
#370 = VERTEX_POINT ( 'NONE', #108 ) ;
#371 = CYLINDRICAL_SURFACE ( 'NONE', #516, 1.600000000000004974 ) ;
#372 = DIRECTION ( 'NONE',  ( -0.000000000000000000, -1.000000000000000000, -0.000000000000000000 ) ) ;
#373 = VERTEX_POINT ( 'NONE', #236 ) ;
#374 = CYLINDRICAL_SURFACE ( 'NONE', #545, 1.600000000000001643 ) ;
#375 = DIRECTION ( 'NONE',  ( -0.000000000000000000, -1.000000000000000000, -0.000000000000000000 ) ) ;
#376 = ORIENTED_EDGE ( 'NONE', *, *, #247, .T. ) ;
#377 = DIRECTION ( 'NONE',  ( -0.000000000000000000, -1.000000000000000000, -0.000000000000000000 ) ) ;
#378 = APPLICATION_CONTEXT ( 'automotive_design' ) ;
#379 = AXIS2_PLACEMENT_3D ( 'NONE', #40, #468, #647 ) ;
#380 = VECTOR ( 'NONE', #473, 1000.000000000000000 ) ;
#381 = EDGE_LOOP ( 'NONE', ( #168, #309, #573, #422 ) ) ;
#382 = DIRECTION ( 'NONE',  ( 0.000000000000000000, 0.000000000000000000, -1.000000000000000000 ) ) ;
#383 = VECTOR ( 'NONE', #442, 1000.000000000000000 ) ;
#384 = VECTOR ( 'NONE', #584, 1000.000000000000000 ) ;
#385 = EDGE_CURVE ( 'NONE', #657, #512, #720, .T. ) ;
#386 = DIRECTION ( 'NONE',  ( 0.000000000000000000, 0.000000000000000000, 1.000000000000000000 ) ) ;
#387 = DIRECTION ( 'NONE',  ( 0.000000000000000000, 0.000000000000000000, -1.000000000000000000 ) ) ;
#388 = CARTESIAN_POINT ( 'NONE',  ( 36.49999999999999289, 6.000000000000000000, -15.09999999999998899 ) ) ;
#389 = CARTESIAN_POINT ( 'NONE',  ( 5.500000000000002665, 0.000000000000000000, -46.10000000000000142 ) ) ;
#390 = ORIENTED_EDGE ( 'NONE', *, *, #259, .F. ) ;
#391 = CARTESIAN_POINT ( 'NONE',  ( 5.500000000000002665, 0.000000000000000000, -42.90000000000000568 ) ) ;
#392 = ADVANCED_FACE ( 'NONE', ( #177 ), #656, .F. ) ;
#393 = CARTESIAN_POINT ( 'NONE',  ( 42.00000000000000000, 6.000000000000000000, -50.00000000000000000 ) ) ;
#394 = AXIS2_PLACEMENT_3D ( 'NONE', #26, #276, #575 ) ;
#395 = FACE_BOUND ( 'NONE', #362, .T. ) ;
#396 = FACE_OUTER_BOUND ( 'NONE', #666, .T. ) ;
#397 = LINE ( 'NONE', #388, #383 ) ;
#398 = CARTESIAN_POINT ( 'NONE',  ( 5.500000000000002665, 6.000000000000000000, -44.50000000000000711 ) ) ;
#399 = EDGE_CURVE ( 'NONE', #778, #779, #493, .T. ) ;
#400 = ORIENTED_EDGE ( 'NONE', *, *, #448, .T. ) ;
#401 = DIRECTION ( 'NONE',  ( 0.000000000000000000, 1.000000000000000000, -0.000000000000000000 ) ) ;
#402 = ORIENTED_EDGE ( 'NONE', *, *, #179, .T. ) ;
#403 = CIRCLE ( 'NONE', #694, 13.50000000000000000 ) ;
#404 = EDGE_CURVE ( 'NONE', #654, #188, #344, .T. ) ;
#405 = AXIS2_PLACEMENT_3D ( 'NONE', #562, #332, #214 ) ;
#406 =( LENGTH_UNIT ( ) NAMED_UNIT ( * ) SI_UNIT ( .MILLI., .METRE. ) );
#407 = CARTESIAN_POINT ( 'NONE',  ( 42.00000000000000000, 6.000000000000000000, 0.000000000000000000 ) ) ;
#408 = ORIENTED_EDGE ( 'NONE', *, *, #439, .T. ) ;
#409 = EDGE_LOOP ( 'NONE', ( #353, #136, #494, #299 ) ) ;
#410 = DIRECTION ( 'NONE',  ( 0.000000000000000000, 0.000000000000000000, 1.000000000000000000 ) ) ;
#411 = DIRECTION ( 'NONE',  ( 0.000000000000000000, 0.000000000000000000, -1.000000000000000000 ) ) ;
#412 = EDGE_CURVE ( 'NONE', #94, #753, #369, .T. ) ;
#413 = DIRECTION ( 'NONE',  ( 0.000000000000000000, 1.000000000000000000, -0.000000000000000000 ) ) ;
#414 = ORIENTED_EDGE ( 'NONE', *, *, #215, .T. ) ;
#415 = VERTEX_POINT ( 'NONE', #234 ) ;
#416 = VECTOR ( 'NONE', #31, 1000.000000000000000 ) ;
#417 = AXIS2_PLACEMENT_3D ( 'NONE', #357, #602, #297 ) ;
#418 = CIRCLE ( 'NONE', #379, 1.599999999999997202 ) ;
#419 = DIRECTION ( 'NONE',  ( 0.000000000000000000, 1.000000000000000000, -0.000000000000000000 ) ) ;
#420 = PRODUCT_DEFINITION ( 'æœ', '', #514, #431 ) ;
#421 = ORIENTED_EDGE ( 'NONE', *, *, #58, .F. ) ;
#422 = ORIENTED_EDGE ( 'NONE', *, *, #674, .F. ) ;
#423 = DIRECTION ( 'NONE',  ( 0.000000000000000000, 0.000000000000000000, -1.000000000000000000 ) ) ;
#424 = EDGE_LOOP ( 'NONE', ( #15, #523 ) ) ;
#425 = CARTESIAN_POINT ( 'NONE',  ( 0.000000000000000000, 0.000000000000000000, 0.000000000000000000 ) ) ;
#426 = EDGE_CURVE ( 'NONE', #512, #175, #316, .T. ) ;
#427 = CYLINDRICAL_SURFACE ( 'NONE', #273, 1.599999999999997202 ) ;
#428 = VERTEX_POINT ( 'NONE', #476 ) ;
#429 = CARTESIAN_POINT ( 'NONE',  ( 36.49999999999999289, 0.000000000000000000, -15.09999999999998899 ) ) ;
#430 = VECTOR ( 'NONE', #611, 1000.000000000000000 ) ;
#431 = PRODUCT_DEFINITION_CONTEXT ( 'detailed design', #742, 'design' ) ;
#432 = AXIS2_PLACEMENT_3D ( 'NONE', #10, #252, #423 ) ;
#433 = ORIENTED_EDGE ( 'NONE', *, *, #247, .F. ) ;
#434 = DIRECTION ( 'NONE',  ( -0.000000000000000000, -1.000000000000000000, -0.000000000000000000 ) ) ;
#435 = CARTESIAN_POINT ( 'NONE',  ( 42.00000000000000000, 0.000000000000000000, -50.00000000000000000 ) ) ;
#436 = ORIENTED_EDGE ( 'NONE', *, *, #342, .T. ) ;
#437 = CARTESIAN_POINT ( 'NONE',  ( 30.99999999999999289, 0.000000000000000000, -1.399999999999995248 ) ) ;
#438 = CARTESIAN_POINT ( 'NONE',  ( 20.99999999999328892, 6.000000000000000000, -28.99999999999818101 ) ) ;
#439 = EDGE_CURVE ( 'NONE', #253, #288, #633, .T. ) ;
#440 = ORIENTED_EDGE ( 'NONE', *, *, #683, .F. ) ;
#441 = CARTESIAN_POINT ( 'NONE',  ( 5.500000000000002665, 6.000000000000000000, -13.49999999999999822 ) ) ;
#442 = DIRECTION ( 'NONE',  ( -0.000000000000000000, -1.000000000000000000, -0.000000000000000000 ) ) ;
#443 = AXIS2_PLACEMENT_3D ( 'NONE', #727, #105, #346 ) ;
#444 = FACE_OUTER_BOUND ( 'NONE', #718, .T. ) ;
#445 = AXIS2_PLACEMENT_3D ( 'NONE', #648, #594, #163 ) ;
#446 = LINE ( 'NONE', #688, #210 ) ;
#447 = CARTESIAN_POINT ( 'NONE',  ( 42.00000000000000000, 6.000000000000000000, 0.000000000000000000 ) ) ;
#448 = EDGE_CURVE ( 'NONE', #565, #222, #18, .T. ) ;
#449 = CARTESIAN_POINT ( 'NONE',  ( 36.49999999999999289, 6.000000000000000000, -13.49999999999999112 ) ) ;
#450 = CARTESIAN_POINT ( 'NONE',  ( 36.49999999999999289, 6.000000000000000000, -42.90000000000001279 ) ) ;
#451 = EDGE_CURVE ( 'NONE', #659, #675, #213, .T. ) ;
#452 = DIRECTION ( 'NONE',  ( -0.000000000000000000, -1.000000000000000000, 0.000000000000000000 ) ) ;
#453 = CIRCLE ( 'NONE', #274, 1.599999999999997202 ) ;
#454 = FACE_BOUND ( 'NONE', #237, .T. ) ;
#455 = AXIS2_PLACEMENT_3D ( 'NONE', #195, #248, #1 ) ;
#456 = EDGE_LOOP ( 'NONE', ( #313, #596 ) ) ;
#457 = CARTESIAN_POINT ( 'NONE',  ( 10.99999999999999467, 6.000000000000000000, -1.399999999999998579 ) ) ;
#458 = EDGE_CURVE ( 'NONE', #617, #241, #608, .T. ) ;
#459 = LINE ( 'NONE', #271, #581 ) ;
#460 = DIRECTION ( 'NONE',  ( 0.000000000000000000, 1.000000000000000000, -0.000000000000000000 ) ) ;
#461 = ORIENTED_EDGE ( 'NONE', *, *, #613, .F. ) ;
#462 = CARTESIAN_POINT ( 'NONE',  ( 5.500000000000002665, 0.000000000000000000, -11.90000000000000036 ) ) ;
#463 = UNCERTAINTY_MEASURE_WITH_UNIT (LENGTH_MEASURE( 1.000000000000000082E-05 ), #488, 'distance_accuracy_value', 'NONE');
#464 = ORIENTED_EDGE ( 'NONE', *, *, #61, .T. ) ;
#465 = DIRECTION ( 'NONE',  ( -0.000000000000000000, -1.000000000000000000, -0.000000000000000000 ) ) ;
#466 = AXIS2_PLACEMENT_3D ( 'NONE', #115, #661, #120 ) ;
#467 = AXIS2_PLACEMENT_3D ( 'NONE', #438, #375, #76 ) ;
#468 = DIRECTION ( 'NONE',  ( 0.000000000000000000, 1.000000000000000000, -0.000000000000000000 ) ) ;
#469 = DIRECTION ( 'NONE',  ( 0.000000000000000000, 0.000000000000000000, 1.000000000000000000 ) ) ;
#470 = ORIENTED_EDGE ( 'NONE', *, *, #305, .F. ) ;
#471 = MANIFOLD_SOLID_BREP ( 'Í¹Ì¨-À­Éì1', #326 ) ;
#472 = EDGE_CURVE ( 'NONE', #478, #539, #485, .T. ) ;
#473 = DIRECTION ( 'NONE',  ( -0.000000000000000000, -1.000000000000000000, -0.000000000000000000 ) ) ;
#474 = EDGE_LOOP ( 'NONE', ( #85, #185, #27, #306 ) ) ;
#475 = EDGE_CURVE ( 'NONE', #161, #288, #112, .T. ) ;
#476 = CARTESIAN_POINT ( 'NONE',  ( 42.00000000000000000, 6.000000000000000000, 0.000000000000000000 ) ) ;
#477 = ORIENTED_EDGE ( 'NONE', *, *, #475, .F. ) ;
#478 = VERTEX_POINT ( 'NONE', #612 ) ;
#479 = CIRCLE ( 'NONE', #141, 1.599999999999997202 ) ;
#480 = VECTOR ( 'NONE', #157, 1000.000000000000000 ) ;
#481 = LINE ( 'NONE', #604, #621 ) ;
#482 = EDGE_CURVE ( 'NONE', #779, #778, #229, .T. ) ;
#483 = ORIENTED_EDGE ( 'NONE', *, *, #568, .F. ) ;
#484 = DIRECTION ( 'NONE',  ( 0.000000000000000000, 0.000000000000000000, 1.000000000000000000 ) ) ;
#485 = LINE ( 'NONE', #187, #81 ) ;
#486 = ORIENTED_EDGE ( 'NONE', *, *, #646, .T. ) ;
#487 = CARTESIAN_POINT ( 'NONE',  ( 42.00000000000000000, 0.000000000000000000, 0.000000000000000000 ) ) ;
#488 =( LENGTH_UNIT ( ) NAMED_UNIT ( * ) SI_UNIT ( .MILLI., .METRE. ) );
#489 = EDGE_LOOP ( 'NONE', ( #283, #436, #649, #11 ) ) ;
#490 = FACE_OUTER_BOUND ( 'NONE', #729, .T. ) ;
#491 = VECTOR ( 'NONE', #522, 1000.000000000000000 ) ;
#492 = CARTESIAN_POINT ( 'NONE',  ( 30.99999999999999289, 0.000000000000000000, -4.600000000000004974 ) ) ;
#493 = CIRCLE ( 'NONE', #356, 1.600000000000004752 ) ;
#494 = ORIENTED_EDGE ( 'NONE', *, *, #719, .F. ) ;
#495 = DIRECTION ( 'NONE',  ( 0.000000000000000000, 0.000000000000000000, 1.000000000000000000 ) ) ;
#496 = EDGE_CURVE ( 'NONE', #222, #565, #56, .T. ) ;
#497 = FACE_OUTER_BOUND ( 'NONE', #643, .T. ) ;
#498 = ORIENTED_EDGE ( 'NONE', *, *, #696, .T. ) ;
#499 = LINE ( 'NONE', #676, #697 ) ;
#500 = CYLINDRICAL_SURFACE ( 'NONE', #685, 1.599999999999997202 ) ;
#501 = ADVANCED_BREP_SHAPE_REPRESENTATION ( 'j3_4', ( #471, #28 ), #89 ) ;
#502 = DIRECTION ( 'NONE',  ( -1.000000000000000000, 0.000000000000000000, -0.000000000000000000 ) ) ;
#503 = CARTESIAN_POINT ( 'NONE',  ( 20.99999999999328892, 0.000000000000000000, -28.99999999999818101 ) ) ;
#504 = FACE_BOUND ( 'NONE', #245, .T. ) ;
#505 = ADVANCED_FACE ( 'NONE', ( #19 ), #191, .F. ) ;
#506 = LINE ( 'NONE', #266, #102 ) ;
#507 = CYLINDRICAL_SURFACE ( 'NONE', #394, 1.599999999999997202 ) ;
#508 = ADVANCED_FACE ( 'NONE', ( #497 ), #739, .F. ) ;
#509 = ORIENTED_EDGE ( 'NONE', *, *, #385, .F. ) ;
#510 = FACE_OUTER_BOUND ( 'NONE', #278, .T. ) ;
#511 = LINE ( 'NONE', #447, #745 ) ;
#512 = VERTEX_POINT ( 'NONE', #6 ) ;
#513 = FACE_BOUND ( 'NONE', #71, .T. ) ;
#514 = PRODUCT_DEFINITION_FORMATION_WITH_SPECIFIED_SOURCE ( 'ä»', '', #578, .NOT_KNOWN. ) ;
#515 = DIRECTION ( 'NONE',  ( -0.000000000000000000, -1.000000000000000000, -0.000000000000000000 ) ) ;
#516 = AXIS2_PLACEMENT_3D ( 'NONE', #548, #307, #314 ) ;
#517 = VECTOR ( 'NONE', #372, 1000.000000000000000 ) ;
#518 = VERTEX_POINT ( 'NONE', #70 ) ;
#519 = ORIENTED_EDGE ( 'NONE', *, *, #404, .T. ) ;
#520 = CARTESIAN_POINT ( 'NONE',  ( 5.500000000000002665, 0.000000000000000000, -13.49999999999999822 ) ) ;
#521 = ADVANCED_FACE ( 'NONE', ( #609 ), #622, .F. ) ;
#522 = DIRECTION ( 'NONE',  ( -0.000000000000000000, -1.000000000000000000, -0.000000000000000000 ) ) ;
#523 = ORIENTED_EDGE ( 'NONE', *, *, #766, .T. ) ;
#524 = VERTEX_POINT ( 'NONE', #492 ) ;
#525 = CYLINDRICAL_SURFACE ( 'NONE', #544, 1.599999999999997202 ) ;
#526 = FILL_AREA_STYLE_COLOUR ( '', #597 ) ;
#527 = ORIENTED_EDGE ( 'NONE', *, *, #624, .F. ) ;
#528 = CYLINDRICAL_SURFACE ( 'NONE', #29, 13.49999999999999822 ) ;
#529 = CARTESIAN_POINT ( 'NONE',  ( 5.500000000000002665, 6.000000000000000000, -44.50000000000000711 ) ) ;
#530 = CARTESIAN_POINT ( 'NONE',  ( 5.500000000000002665, 6.000000000000000000, -44.50000000000000711 ) ) ;
#531 = EDGE_LOOP ( 'NONE', ( #269, #173 ) ) ;
#532 = EDGE_CURVE ( 'NONE', #231, #161, #240, .T. ) ;
#533 = AXIS2_PLACEMENT_3D ( 'NONE', #365, #572, #96 ) ;
#534 = DIRECTION ( 'NONE',  ( 0.000000000000000000, 1.000000000000000000, -0.000000000000000000 ) ) ;
#535 = PRESENTATION_STYLE_ASSIGNMENT (( #291 ) ) ;
#536 = VERTEX_POINT ( 'NONE', #728 ) ;
#537 = CARTESIAN_POINT ( 'NONE',  ( 20.99999999999999289, 6.000000000000000000, -1.399999999999998579 ) ) ;
#538 = VERTEX_POINT ( 'NONE', #736 ) ;
#539 = VERTEX_POINT ( 'NONE', #435 ) ;
#540 = ADVANCED_FACE ( 'NONE', ( #677 ), #134, .F. ) ;
#541 = DIRECTION ( 'NONE',  ( 0.000000000000000000, 0.000000000000000000, -1.000000000000000000 ) ) ;
#542 = EDGE_LOOP ( 'NONE', ( #400, #221, #595, #298 ) ) ;
#543 = ORIENTED_EDGE ( 'NONE', *, *, #674, .T. ) ;
#544 = AXIS2_PLACEMENT_3D ( 'NONE', #44, #171, #589 ) ;
#545 = AXIS2_PLACEMENT_3D ( 'NONE', #553, #377, #257 ) ;
#546 = DIRECTION ( 'NONE',  ( 0.000000000000000000, 0.000000000000000000, -1.000000000000000000 ) ) ;
#547 = ORIENTED_EDGE ( 'NONE', *, *, #532, .F. ) ;
#548 = CARTESIAN_POINT ( 'NONE',  ( 30.99999999999999289, 6.000000000000000000, -3.000000000000000000 ) ) ;
#549 = ORIENTED_EDGE ( 'NONE', *, *, #554, .T. ) ;
#550 = CARTESIAN_POINT ( 'NONE',  ( 0.000000000000000000, 6.000000000000000000, 0.000000000000000000 ) ) ;
#551 =( NAMED_UNIT ( * ) PLANE_ANGLE_UNIT ( ) SI_UNIT ( $, .RADIAN. ) );
#552 = ORIENTED_EDGE ( 'NONE', *, *, #702, .F. ) ;
#553 = CARTESIAN_POINT ( 'NONE',  ( 10.99999999999999467, 6.000000000000000000, -3.000000000000000000 ) ) ;
#554 = EDGE_CURVE ( 'NONE', #175, #512, #178, .T. ) ;
#555 = VECTOR ( 'NONE', #75, 1000.000000000000000 ) ;
#556 = DIRECTION ( 'NONE',  ( 0.000000000000000000, 1.000000000000000000, -0.000000000000000000 ) ) ;
#557 = VERTEX_POINT ( 'NONE', #124 ) ;
#558 = DIRECTION ( 'NONE',  ( 0.000000000000000000, 0.000000000000000000, 1.000000000000000000 ) ) ;
#559 = EDGE_CURVE ( 'NONE', #57, #415, #481, .T. ) ;
#560 = FACE_OUTER_BOUND ( 'NONE', #599, .T. ) ;
#561 = CARTESIAN_POINT ( 'NONE',  ( 36.49999999999999289, 0.000000000000000000, -13.49999999999999112 ) ) ;
#562 = CARTESIAN_POINT ( 'NONE',  ( 0.000000000000000000, 0.000000000000000000, 0.000000000000000000 ) ) ;
#563 = ADVANCED_FACE ( 'NONE', ( #184 ), #427, .F. ) ;
#564 = FACE_BOUND ( 'NONE', #345, .T. ) ;
#565 = VERTEX_POINT ( 'NONE', #328 ) ;
#566 = DIRECTION ( 'NONE',  ( -0.000000000000000000, -1.000000000000000000, -0.000000000000000000 ) ) ;
#567 = AXIS2_PLACEMENT_3D ( 'NONE', #129, #741, #495 ) ;
#568 = EDGE_CURVE ( 'NONE', #659, #160, #397, .T. ) ;
#569 = CARTESIAN_POINT ( 'NONE',  ( 0.000000000000000000, 6.000000000000000000, 0.000000000000000000 ) ) ;
#570 = CIRCLE ( 'NONE', #41, 1.599999999999997202 ) ;
#571 = DIRECTION ( 'NONE',  ( -0.000000000000000000, -1.000000000000000000, -0.000000000000000000 ) ) ;
#572 = DIRECTION ( 'NONE',  ( 0.000000000000000000, 1.000000000000000000, -0.000000000000000000 ) ) ;
#573 = ORIENTED_EDGE ( 'NONE', *, *, #752, .T. ) ;
#574 = CARTESIAN_POINT ( 'NONE',  ( 0.000000000000000000, 0.000000000000000000, 0.000000000000000000 ) ) ;
#575 = DIRECTION ( 'NONE',  ( 0.000000000000000000, 0.000000000000000000, -1.000000000000000000 ) ) ;
#576 = EDGE_CURVE ( 'NONE', #415, #478, #25, .T. ) ;
#577 = ORIENTED_EDGE ( 'NONE', *, *, #624, .T. ) ;
#578 = PRODUCT ( 'j3_4', 'j3_4', '', ( #339 ) ) ;
#579 = CYLINDRICAL_SURFACE ( 'NONE', #721, 1.599999999999997202 ) ;
#580 = CARTESIAN_POINT ( 'NONE',  ( 36.49999999999999289, 0.000000000000000000, -44.50000000000001421 ) ) ;
#581 = VECTOR ( 'NONE', #158, 1000.000000000000000 ) ;
#582 = VECTOR ( 'NONE', #321, 1000.000000000000000 ) ;
#583 = ORIENTED_EDGE ( 'NONE', *, *, #111, .T. ) ;
#584 = DIRECTION ( 'NONE',  ( -0.000000000000000000, -1.000000000000000000, -0.000000000000000000 ) ) ;
#585 = DIRECTION ( 'NONE',  ( 0.000000000000000000, 0.000000000000000000, 1.000000000000000000 ) ) ;
#586 = VERTEX_POINT ( 'NONE', #635 ) ;
#587 = CARTESIAN_POINT ( 'NONE',  ( 0.000000000000000000, 6.000000000000000000, 0.000000000000000000 ) ) ;
#588 = ORIENTED_EDGE ( 'NONE', *, *, #170, .T. ) ;
#589 = DIRECTION ( 'NONE',  ( 0.000000000000000000, 0.000000000000000000, -1.000000000000000000 ) ) ;
#590 = EDGE_CURVE ( 'NONE', #363, #538, #570, .T. ) ;
#591 = CARTESIAN_POINT ( 'NONE',  ( 36.49999999999999289, 0.000000000000000000, -44.50000000000001421 ) ) ;
#592 = ORIENTED_EDGE ( 'NONE', *, *, #708, .T. ) ;
#593 = ORIENTED_EDGE ( 'NONE', *, *, #92, .F. ) ;
#594 = DIRECTION ( 'NONE',  ( -1.000000000000000000, 0.000000000000000000, 0.000000000000000000 ) ) ;
#595 = ORIENTED_EDGE ( 'NONE', *, *, #664, .F. ) ;
#596 = ORIENTED_EDGE ( 'NONE', *, *, #412, .F. ) ;
#597 = COLOUR_RGB ( '',0.7921568627450980005, 0.8196078431372548767, 0.9333333333333333481 ) ;
#598 = LINE ( 'NONE', #285, #380 ) ;
#599 = EDGE_LOOP ( 'NONE', ( #461, #588, #770, #593 ) ) ;
#600 = ORIENTED_EDGE ( 'NONE', *, *, #170, .F. ) ;
#601 = EDGE_CURVE ( 'NONE', #243, #539, #36, .T. ) ;
#602 = DIRECTION ( 'NONE',  ( 0.000000000000000000, 1.000000000000000000, -0.000000000000000000 ) ) ;
#603 = EDGE_LOOP ( 'NONE', ( #359, #350 ) ) ;
#604 = CARTESIAN_POINT ( 'NONE',  ( 0.000000000000000000, 6.000000000000000000, 0.000000000000000000 ) ) ;
#605 = EDGE_LOOP ( 'NONE', ( #55, #51, #47, #749 ) ) ;
#606 = FACE_OUTER_BOUND ( 'NONE', #691, .T. ) ;
#607 = AXIS2_PLACEMENT_3D ( 'NONE', #682, #133, #382 ) ;
#608 = CIRCLE ( 'NONE', #673, 1.599999999999997202 ) ;
#609 = FACE_OUTER_BOUND ( 'NONE', #211, .T. ) ;
#610 = ORIENTED_EDGE ( 'NONE', *, *, #360, .T. ) ;
#611 = DIRECTION ( 'NONE',  ( -0.000000000000000000, -1.000000000000000000, -0.000000000000000000 ) ) ;
#612 = CARTESIAN_POINT ( 'NONE',  ( 0.000000000000000000, 0.000000000000000000, -50.00000000000000000 ) ) ;
#613 = EDGE_CURVE ( 'NONE', #125, #518, #91, .T. ) ;
#614 = ORIENTED_EDGE ( 'NONE', *, *, #259, .T. ) ;
#615 = LINE ( 'NONE', #68, #773 ) ;
#616 = DIRECTION ( 'NONE',  ( -0.000000000000000000, -1.000000000000000000, -0.000000000000000000 ) ) ;
#617 = VERTEX_POINT ( 'NONE', #391 ) ;
#618 = LINE ( 'NONE', #244, #430 ) ;
#619 = ADVANCED_FACE ( 'NONE', ( #510 ), #500, .F. ) ;
#620 = VECTOR ( 'NONE', #16, 1000.000000000000000 ) ;
#621 = VECTOR ( 'NONE', #546, 1000.000000000000000 ) ;
#622 = CYLINDRICAL_SURFACE ( 'NONE', #455, 1.599999999999997202 ) ;
#623 = LINE ( 'NONE', #425, #312 ) ;
#624 = EDGE_CURVE ( 'NONE', #161, #231, #712, .T. ) ;
#625 = DIRECTION ( 'NONE',  ( 0.000000000000000000, 0.000000000000000000, -1.000000000000000000 ) ) ;
#626 = CARTESIAN_POINT ( 'NONE',  ( 0.000000000000000000, 6.000000000000000000, -50.00000000000000000 ) ) ;
#627 = LINE ( 'NONE', #323, #416 ) ;
#628 = FACE_BOUND ( 'NONE', #629, .T. ) ;
#629 = EDGE_LOOP ( 'NONE', ( #340, #707 ) ) ;
#630 = CARTESIAN_POINT ( 'NONE',  ( 36.49999999999999289, 6.000000000000000000, -13.49999999999999112 ) ) ;
#631 = CIRCLE ( 'NONE', #684, 1.599999999999997202 ) ;
#632 = DIRECTION ( 'NONE',  ( -1.000000000000000000, 0.000000000000000000, -0.000000000000000000 ) ) ;
#633 = CIRCLE ( 'NONE', #699, 1.599999999999997202 ) ;
#634 = EDGE_LOOP ( 'NONE', ( #549, #358 ) ) ;
#635 = CARTESIAN_POINT ( 'NONE',  ( 5.500000000000002665, 6.000000000000000000, -15.09999999999999609 ) ) ;
#636 = CARTESIAN_POINT ( 'NONE',  ( 10.99999999999999467, 0.000000000000000000, -4.600000000000001421 ) ) ;
#637 = EDGE_CURVE ( 'NONE', #222, #557, #506, .T. ) ;
#638 = DIRECTION ( 'NONE',  ( 0.000000000000000000, 0.000000000000000000, 1.000000000000000000 ) ) ;
#639 = LINE ( 'NONE', #97, #152 ) ;
#640 = ORIENTED_EDGE ( 'NONE', *, *, #334, .F. ) ;
#641 = DIRECTION ( 'NONE',  ( 1.000000000000000000, 0.000000000000000000, 0.000000000000000000 ) ) ;
#642 = DIRECTION ( 'NONE',  ( 0.000000000000000000, 0.000000000000000000, 1.000000000000000000 ) ) ;
#643 = EDGE_LOOP ( 'NONE', ( #681, #519, #232, #440 ) ) ;
#644 = VECTOR ( 'NONE', #281, 1000.000000000000000 ) ;
#645 = ORIENTED_EDGE ( 'NONE', *, *, #696, .F. ) ;
#646 = EDGE_CURVE ( 'NONE', #675, #659, #301, .T. ) ;
#647 = DIRECTION ( 'NONE',  ( 0.000000000000000000, 0.000000000000000000, 1.000000000000000000 ) ) ;
#648 = CARTESIAN_POINT ( 'NONE',  ( 0.000000000000000000, 6.000000000000000000, 0.000000000000000000 ) ) ;
#649 = ORIENTED_EDGE ( 'NONE', *, *, #683, .T. ) ;
#650 = ORIENTED_EDGE ( 'NONE', *, *, #475, .T. ) ;
#651 = CARTESIAN_POINT ( 'NONE',  ( 20.99999999999328892, 0.000000000000000000, -42.49999999999818101 ) ) ;
#652 = ADVANCED_FACE ( 'NONE', ( #513, #154, #208, #318, #560, #258, #686, #395, #23 ), #759, .F. ) ;
#653 = CARTESIAN_POINT ( 'NONE',  ( 36.49999999999999289, 6.000000000000000000, -13.49999999999999112 ) ) ;
#654 = VERTEX_POINT ( 'NONE', #457 ) ;
#655 = DIRECTION ( 'NONE',  ( 0.000000000000000000, 0.000000000000000000, 1.000000000000000000 ) ) ;
#656 = CYLINDRICAL_SURFACE ( 'NONE', #735, 1.600000000000004974 ) ;
#657 = VERTEX_POINT ( 'NONE', #255 ) ;
#658 = VECTOR ( 'NONE', #42, 1000.000000000000000 ) ;
#659 = VERTEX_POINT ( 'NONE', #743 ) ;
#660 = AXIS2_PLACEMENT_3D ( 'NONE', #14, #66, #73 ) ;
#661 = DIRECTION ( 'NONE',  ( 0.000000000000000000, 1.000000000000000000, -0.000000000000000000 ) ) ;
#662 = ORIENTED_EDGE ( 'NONE', *, *, #568, .T. ) ;
#663 = ORIENTED_EDGE ( 'NONE', *, *, #360, .F. ) ;
#664 = EDGE_CURVE ( 'NONE', #716, #557, #69, .T. ) ;
#665 = CARTESIAN_POINT ( 'NONE',  ( 20.99999999999999289, 0.000000000000000000, -3.000000000000000000 ) ) ;
#666 = EDGE_LOOP ( 'NONE', ( #764, #20, #113, #669 ) ) ;
#667 = DIRECTION ( 'NONE',  ( 0.000000000000000000, 0.000000000000000000, 1.000000000000000000 ) ) ;
#668 = DIRECTION ( 'NONE',  ( 0.000000000000000000, 1.000000000000000000, -0.000000000000000000 ) ) ;
#669 = ORIENTED_EDGE ( 'NONE', *, *, #601, .T. ) ;
#670 = DIRECTION ( 'NONE',  ( -1.000000000000000000, 0.000000000000000000, 0.000000000000000000 ) ) ;
#671 = AXIS2_PLACEMENT_3D ( 'NONE', #143, #83, #386 ) ;
#672 = AXIS2_PLACEMENT_3D ( 'NONE', #441, #78, #558 ) ;
#673 = AXIS2_PLACEMENT_3D ( 'NONE', #706, #715, #642 ) ;
#674 = EDGE_CURVE ( 'NONE', #557, #716, #403, .T. ) ;
#675 = VERTEX_POINT ( 'NONE', #203 ) ;
#676 = CARTESIAN_POINT ( 'NONE',  ( 5.500000000000002665, 6.000000000000000000, -11.90000000000000036 ) ) ;
#677 = FACE_OUTER_BOUND ( 'NONE', #381, .T. ) ;
#678 = EDGE_LOOP ( 'NONE', ( #433, #132 ) ) ;
#679 = CARTESIAN_POINT ( 'NONE',  ( 0.000000000000000000, 6.000000000000000000, -50.00000000000000000 ) ) ;
#680 = DIRECTION ( 'NONE',  ( 0.000000000000000000, 0.000000000000000000, 1.000000000000000000 ) ) ;
#681 = ORIENTED_EDGE ( 'NONE', *, *, #87, .T. ) ;
#682 = CARTESIAN_POINT ( 'NONE',  ( 36.49999999999999289, 6.000000000000000000, -44.50000000000001421 ) ) ;
#683 = EDGE_CURVE ( 'NONE', #370, #292, #446, .T. ) ;
#684 = AXIS2_PLACEMENT_3D ( 'NONE', #3, #242, #484 ) ;
#685 = AXIS2_PLACEMENT_3D ( 'NONE', #695, #263, #149 ) ;
#686 = FACE_BOUND ( 'NONE', #424, .T. ) ;
#687 = DIRECTION ( 'NONE',  ( 0.000000000000000000, 0.000000000000000000, -1.000000000000000000 ) ) ;
#688 = CARTESIAN_POINT ( 'NONE',  ( 10.99999999999999467, 6.000000000000000000, -4.600000000000001421 ) ) ;
#689 = CARTESIAN_POINT ( 'NONE',  ( 36.49999999999999289, 0.000000000000000000, -46.10000000000000853 ) ) ;
#690 = ORIENTED_EDGE ( 'NONE', *, *, #296, .F. ) ;
#691 = EDGE_LOOP ( 'NONE', ( #2, #663, #77, #583 ) ) ;
#692 = DIRECTION ( 'NONE',  ( 0.000000000000000000, 0.000000000000000000, 1.000000000000000000 ) ) ;
#693 = CYLINDRICAL_SURFACE ( 'NONE', #202, 1.599999999999997202 ) ;
#694 = AXIS2_PLACEMENT_3D ( 'NONE', #503, #86, #747 ) ;
#695 = CARTESIAN_POINT ( 'NONE',  ( 36.49999999999999289, 6.000000000000000000, -13.49999999999999112 ) ) ;
#696 = EDGE_CURVE ( 'NONE', #231, #253, #627, .T. ) ;
#697 = VECTOR ( 'NONE', #193, 1000.000000000000000 ) ;
#698 = LINE ( 'NONE', #703, #491 ) ;
#699 = AXIS2_PLACEMENT_3D ( 'NONE', #591, #772, #767 ) ;
#700 = ORIENTED_EDGE ( 'NONE', *, *, #111, .F. ) ;
#701 = DIRECTION ( 'NONE',  ( -0.000000000000000000, -1.000000000000000000, -0.000000000000000000 ) ) ;
#702 = EDGE_CURVE ( 'NONE', #779, #63, #343, .T. ) ;
#703 = CARTESIAN_POINT ( 'NONE',  ( 20.99999999999999289, 6.000000000000000000, -4.600000000000001421 ) ) ;
#704 = EDGE_LOOP ( 'NONE', ( #421, #122, #64, #60 ) ) ;
#705 = DIRECTION ( 'NONE',  ( 0.000000000000000000, 0.000000000000000000, 1.000000000000000000 ) ) ;
#706 = CARTESIAN_POINT ( 'NONE',  ( 5.500000000000002665, 0.000000000000000000, -44.50000000000000711 ) ) ;
#707 = ORIENTED_EDGE ( 'NONE', *, *, #145, .T. ) ;
#708 = EDGE_CURVE ( 'NONE', #160, #756, #418, .T. ) ;
#709 = CARTESIAN_POINT ( 'NONE',  ( 5.500000000000002665, 6.000000000000000000, -46.10000000000000142 ) ) ;
#710 = CARTESIAN_POINT ( 'NONE',  ( 30.99999999999999289, 6.000000000000000000, -3.000000000000000000 ) ) ;
#711 = CIRCLE ( 'NONE', #533, 1.600000000000001643 ) ;
#712 = CIRCLE ( 'NONE', #341, 1.599999999999997202 ) ;
#713 = DIRECTION ( 'NONE',  ( 0.000000000000000000, 0.000000000000000000, -1.000000000000000000 ) ) ;
#714 = DIRECTION ( 'NONE',  ( 0.000000000000000000, 0.000000000000000000, 1.000000000000000000 ) ) ;
#715 = DIRECTION ( 'NONE',  ( 0.000000000000000000, 1.000000000000000000, -0.000000000000000000 ) ) ;
#716 = VERTEX_POINT ( 'NONE', #651 ) ;
#717 = DIRECTION ( 'NONE',  ( 0.000000000000000000, 0.000000000000000000, 1.000000000000000000 ) ) ;
#718 = EDGE_LOOP ( 'NONE', ( #547, #498, #408, #477 ) ) ;
#719 = EDGE_CURVE ( 'NONE', #524, #63, #325, .T. ) ;
#720 = LINE ( 'NONE', #537, #644 ) ;
#721 = AXIS2_PLACEMENT_3D ( 'NONE', #529, #351, #219 ) ;
#722 = ORIENTED_EDGE ( 'NONE', *, *, #179, .F. ) ;
#723 = ORIENTED_EDGE ( 'NONE', *, *, #13, .F. ) ;
#724 = CIRCLE ( 'NONE', #54, 1.599999999999997202 ) ;
#725 = VECTOR ( 'NONE', #701, 1000.000000000000000 ) ;
#726 = ORIENTED_EDGE ( 'NONE', *, *, #590, .T. ) ;
#727 = CARTESIAN_POINT ( 'NONE',  ( 20.99999999999999289, 6.000000000000000000, -3.000000000000000000 ) ) ;
#728 = CARTESIAN_POINT ( 'NONE',  ( 5.500000000000002665, 6.000000000000000000, -11.90000000000000036 ) ) ;
#729 = EDGE_LOOP ( 'NONE', ( #109, #139, #470, #610 ) ) ;
#730 = FACE_OUTER_BOUND ( 'NONE', #489, .T. ) ;
#731 = EDGE_CURVE ( 'NONE', #538, #363, #453, .T. ) ;
#732 = ORIENTED_EDGE ( 'NONE', *, *, #646, .F. ) ;
#733 = DIRECTION ( 'NONE',  ( 0.000000000000000000, 0.000000000000000000, 1.000000000000000000 ) ) ;
#734 = CIRCLE ( 'NONE', #443, 1.600000000000001643 ) ;
#735 = AXIS2_PLACEMENT_3D ( 'NONE', #710, #361, #411 ) ;
#736 = CARTESIAN_POINT ( 'NONE',  ( 5.500000000000002665, 0.000000000000000000, -15.09999999999999609 ) ) ;
#737 = EDGE_LOOP ( 'NONE', ( #645, #527, #650, #376 ) ) ;
#738 = PLANE ( 'NONE',  #100 ) ;
#739 = CYLINDRICAL_SURFACE ( 'NONE', #762, 1.600000000000001643 ) ;
#740 = EDGE_LOOP ( 'NONE', ( #552, #364, #180, #640 ) ) ;
#741 = DIRECTION ( 'NONE',  ( 0.000000000000000000, 1.000000000000000000, -0.000000000000000000 ) ) ;
#742 = APPLICATION_CONTEXT ( 'automotive_design' ) ;
#743 = CARTESIAN_POINT ( 'NONE',  ( 36.49999999999999289, 6.000000000000000000, -15.09999999999998899 ) ) ;
#744 = CARTESIAN_POINT ( 'NONE',  ( 0.000000000000000000, 0.000000000000000000, 0.000000000000000000 ) ) ;
#745 = VECTOR ( 'NONE', #687, 1000.000000000000000 ) ;
#746 = AXIS2_PLACEMENT_3D ( 'NONE', #449, #754, #638 ) ;
#747 = DIRECTION ( 'NONE',  ( 0.000000000000000000, 0.000000000000000000, 1.000000000000000000 ) ) ;
#748 = DIRECTION ( 'NONE',  ( 0.000000000000000000, 0.000000000000000000, -1.000000000000000000 ) ) ;
#749 = ORIENTED_EDGE ( 'NONE', *, *, #731, .T. ) ;
#750 = CARTESIAN_POINT ( 'NONE',  ( 0.000000000000000000, 6.000000000000000000, -50.00000000000000000 ) ) ;
#751 = DIRECTION ( 'NONE',  ( 0.000000000000000000, 0.000000000000000000, 1.000000000000000000 ) ) ;
#752 = EDGE_CURVE ( 'NONE', #565, #716, #768, .T. ) ;
#753 = VERTEX_POINT ( 'NONE', #709 ) ;
#754 = DIRECTION ( 'NONE',  ( 0.000000000000000000, 1.000000000000000000, -0.000000000000000000 ) ) ;
#755 = DIRECTION ( 'NONE',  ( -0.000000000000000000, -1.000000000000000000, 0.000000000000000000 ) ) ;
#756 = VERTEX_POINT ( 'NONE', #52 ) ;
#757 = ADVANCED_FACE ( 'NONE', ( #107 ), #525, .F. ) ;
#758 = CIRCLE ( 'NONE', #367, 1.599999999999997202 ) ;
#759 = PLANE ( 'NONE',  #405 ) ;
#760 = PRESENTATION_LAYER_ASSIGNMENT (  '', '', ( #118 ) ) ;
#761 = CARTESIAN_POINT ( 'NONE',  ( 5.500000000000002665, 6.000000000000000000, -13.49999999999999822 ) ) ;
#762 = AXIS2_PLACEMENT_3D ( 'NONE', #182, #616, #541 ) ;
#763 = APPLICATION_PROTOCOL_DEFINITION ( 'draft international standard', 'automotive_design', 1998, #742 ) ;
#764 = ORIENTED_EDGE ( 'NONE', *, *, #472, .F. ) ;
#765 = DIRECTION ( 'NONE',  ( -0.000000000000000000, -1.000000000000000000, -0.000000000000000000 ) ) ;
#766 = EDGE_CURVE ( 'NONE', #188, #292, #228, .T. ) ;
#767 = DIRECTION ( 'NONE',  ( 0.000000000000000000, 0.000000000000000000, 1.000000000000000000 ) ) ;
#768 = LINE ( 'NONE', #223, #384 ) ;
#769 = FILL_AREA_STYLE ('',( #526 ) ) ;
#770 = ORIENTED_EDGE ( 'NONE', *, *, #472, .T. ) ;
#771 = VECTOR ( 'NONE', #765, 1000.000000000000000 ) ;
#772 = DIRECTION ( 'NONE',  ( -0.000000000000000000, -1.000000000000000000, 0.000000000000000000 ) ) ;
#773 = VECTOR ( 'NONE', #434, 1000.000000000000000 ) ;
#774 = ORIENTED_EDGE ( 'NONE', *, *, #451, .T. ) ;
#775 = LINE ( 'NONE', #407, #5 ) ;
#776 = ADVANCED_FACE ( 'NONE', ( #162 ), #579, .F. ) ;
#777 = CARTESIAN_POINT ( 'NONE',  ( 30.99999999999999289, 6.000000000000000000, -3.000000000000000000 ) ) ;
#778 = VERTEX_POINT ( 'NONE', #284 ) ;
#779 = VERTEX_POINT ( 'NONE', #279 ) ;
ENDSEC;
END-ISO-10303-21;
