ISO-10303-21;
HEADER;
FILE_DESCRIPTION (( 'STEP AP214' ),
    '1' );
FILE_NAME ('j4.STEP',
    '2026-08-29T12:28:21',
    ( '' ),
    ( '' ),
    'SwSTEP 2.0',
    'SolidWorks 2024',
    '' );
FILE_SCHEMA (( 'AUTOMOTIVE_DESIGN' ));
ENDSEC;

DATA;
#1 = EDGE_CURVE ( 'NONE', #559, #39, #581, .T. ) ;
#2 = ADVANCED_FACE ( 'NONE', ( #228, #158, #45, #327, #470, #464, #766, #572, #711 ), #278, .T. ) ;
#3 = VERTEX_POINT ( 'NONE', #403 ) ;
#4 = CARTESIAN_POINT ( 'NONE',  ( 16.00000000000000000, 0.000000000000000000, -24.75000000000000000 ) ) ;
#5 = CARTESIAN_POINT ( 'NONE',  ( 36.00000000000000000, 0.000000000000000000, -24.99999999999999645 ) ) ;
#6 = EDGE_CURVE ( 'NONE', #629, #718, #461, .T. ) ;
#7 = CARTESIAN_POINT ( 'NONE',  ( 16.00000000000000000, 0.000000000000000000, -15.00000000000000000 ) ) ;
#8 = PLANE ( 'NONE',  #469 ) ;
#9 = AXIS2_PLACEMENT_3D ( 'NONE', #250, #743, #301 ) ;
#10 = AXIS2_PLACEMENT_3D ( 'NONE', #392, #521, #509 ) ;
#11 = CARTESIAN_POINT ( 'NONE',  ( 16.00000000000000000, 6.000000000000000000, -23.15000000000000213 ) ) ;
#12 = DIRECTION ( 'NONE',  ( -0.000000000000000000, -1.000000000000000000, -0.000000000000000000 ) ) ;
#13 = SURFACE_STYLE_USAGE ( .BOTH. , #433 ) ;
#14 = ADVANCED_FACE ( 'NONE', ( #54 ), #474, .F. ) ;
#15 = DIRECTION ( 'NONE',  ( 0.000000000000000000, 0.000000000000000000, -1.000000000000000000 ) ) ;
#16 = CARTESIAN_POINT ( 'NONE',  ( 16.00000000000000000, 6.000000000000000000, -24.75000000000000000 ) ) ;
#17 = LINE ( 'NONE', #733, #95 ) ;
#18 = CIRCLE ( 'NONE', #724, 1.599999999999998090 ) ;
#19 = DIRECTION ( 'NONE',  ( -0.000000000000000000, -1.000000000000000000, -0.000000000000000000 ) ) ;
#20 = AXIS2_PLACEMENT_3D ( 'NONE', #231, #406, #172 ) ;
#21 = DIRECTION ( 'NONE',  ( -0.000000000000000000, -1.000000000000000000, -0.000000000000000000 ) ) ;
#22 = DIRECTION ( 'NONE',  ( 0.000000000000000000, 0.000000000000000000, 1.000000000000000000 ) ) ;
#23 = VERTEX_POINT ( 'NONE', #98 ) ;
#24 = ORIENTED_EDGE ( 'NONE', *, *, #1, .T. ) ;
#25 = DIRECTION ( 'NONE',  ( 0.000000000000000000, 0.000000000000000000, 1.000000000000000000 ) ) ;
#26 = EDGE_CURVE ( 'NONE', #322, #397, #207, .T. ) ;
#27 = LINE ( 'NONE', #265, #335 ) ;
#28 = ORIENTED_EDGE ( 'NONE', *, *, #707, .F. ) ;
#29 = VERTEX_POINT ( 'NONE', #757 ) ;
#30 = ORIENTED_EDGE ( 'NONE', *, *, #352, .T. ) ;
#31 = VERTEX_POINT ( 'NONE', #215 ) ;
#32 = EDGE_LOOP ( 'NONE', ( #102, #619 ) ) ;
#33 = EDGE_LOOP ( 'NONE', ( #451, #566 ) ) ;
#34 = EDGE_LOOP ( 'NONE', ( #318, #682, #500, #772 ) ) ;
#35 = EDGE_CURVE ( 'NONE', #559, #449, #157, .T. ) ;
#36 = VERTEX_POINT ( 'NONE', #330 ) ;
#37 = DIRECTION ( 'NONE',  ( 0.000000000000000000, 1.000000000000000000, 0.000000000000000000 ) ) ;
#38 = CARTESIAN_POINT ( 'NONE',  ( 36.00000000000000000, 6.000000000000000000, -23.40000000000000213 ) ) ;
#39 = VERTEX_POINT ( 'NONE', #574 ) ;
#40 = VECTOR ( 'NONE', #480, 1000.000000000000000 ) ;
#41 = AXIS2_PLACEMENT_3D ( 'NONE', #538, #702, #770 ) ;
#42 = PRODUCT_DEFINITION_FORMATION_WITH_SPECIFIED_SOURCE ( 'ä»', '', #540, .NOT_KNOWN. ) ;
#43 = EDGE_CURVE ( 'NONE', #444, #3, #650, .T. ) ;
#44 = DIRECTION ( 'NONE',  ( -0.000000000000000000, -0.000000000000000000, 1.000000000000000000 ) ) ;
#45 = FACE_BOUND ( 'NONE', #61, .T. ) ;
#46 = VERTEX_POINT ( 'NONE', #219 ) ;
#47 = FACE_OUTER_BOUND ( 'NONE', #626, .T. ) ;
#48 = CARTESIAN_POINT ( 'NONE',  ( 0.000000000000000000, 0.000000000000000000, -30.00000000000000000 ) ) ;
#49 = FACE_BOUND ( 'NONE', #273, .T. ) ;
#50 = ORIENTED_EDGE ( 'NONE', *, *, #768, .T. ) ;
#51 = CARTESIAN_POINT ( 'NONE',  ( 39.00000000000000000, 0.000000000000000000, 0.000000000000000000 ) ) ;
#52 = LINE ( 'NONE', #529, #516 ) ;
#53 = CARTESIAN_POINT ( 'NONE',  ( 25.75000000000000355, 6.000000000000000000, -15.00000000000000000 ) ) ;
#54 = FACE_OUTER_BOUND ( 'NONE', #741, .T. ) ;
#55 = ADVANCED_FACE ( 'NONE', ( #166, #645, #396, #640, #109, #103, #336, #585, #49 ), #527, .F. ) ;
#56 = ORIENTED_EDGE ( 'NONE', *, *, #498, .F. ) ;
#57 = CARTESIAN_POINT ( 'NONE',  ( 16.00000000000000000, 0.000000000000000000, -15.00000000000000000 ) ) ;
#58 = VECTOR ( 'NONE', #599, 1000.000000000000000 ) ;
#59 = CARTESIAN_POINT ( 'NONE',  ( 0.000000000000000000, 0.000000000000000000, 0.000000000000000000 ) ) ;
#60 = CIRCLE ( 'NONE', #579, 1.599999999999997202 ) ;
#61 = EDGE_LOOP ( 'NONE', ( #740, #575 ) ) ;
#62 = DIRECTION ( 'NONE',  ( 1.000000000000000000, 0.000000000000000000, 0.000000000000000000 ) ) ;
#63 = EDGE_CURVE ( 'NONE', #210, #758, #734, .T. ) ;
#64 = LINE ( 'NONE', #222, #289 ) ;
#65 = CYLINDRICAL_SURFACE ( 'NONE', #323, 1.600000000000000755 ) ;
#66 = SHAPE_DEFINITION_REPRESENTATION ( #110, #715 ) ;
#67 = ADVANCED_FACE ( 'NONE', ( #534 ), #349, .F. ) ;
#68 = CARTESIAN_POINT ( 'NONE',  ( 39.00000000000000000, 6.000000000000000000, 0.000000000000000000 ) ) ;
#69 = LINE ( 'NONE', #11, #630 ) ;
#70 = CARTESIAN_POINT ( 'NONE',  ( 0.000000000000000000, 6.000000000000000000, 0.000000000000000000 ) ) ;
#71 = AXIS2_PLACEMENT_3D ( 'NONE', #114, #345, #590 ) ;
#72 = AXIS2_PLACEMENT_3D ( 'NONE', #551, #366, #252 ) ;
#73 = CARTESIAN_POINT ( 'NONE',  ( 6.250000000000000000, 0.000000000000000000, -15.00000000000000000 ) ) ;
#74 = CARTESIAN_POINT ( 'NONE',  ( 0.000000000000000000, 6.000000000000000000, -30.00000000000000000 ) ) ;
#75 = CYLINDRICAL_SURFACE ( 'NONE', #760, 1.600000000000000755 ) ;
#76 = CARTESIAN_POINT ( 'NONE',  ( 6.250000000000000000, 6.000000000000000000, -15.00000000000000000 ) ) ;
#77 = EDGE_LOOP ( 'NONE', ( #694, #512 ) ) ;
#78 = CARTESIAN_POINT ( 'NONE',  ( 16.00956587608467174, 6.000000000000000000, -6.850004692615756952 ) ) ;
#79 = PRESENTATION_LAYER_ASSIGNMENT (  '', '', ( #309 ) ) ;
#80 = DIRECTION ( 'NONE',  ( 0.000000000000000000, 1.000000000000000000, 0.000000000000000000 ) ) ;
#81 = VECTOR ( 'NONE', #466, 1000.000000000000000 ) ;
#82 = ORIENTED_EDGE ( 'NONE', *, *, #1, .F. ) ;
#83 = UNCERTAINTY_MEASURE_WITH_UNIT (LENGTH_MEASURE( 1.000000000000000082E-05 ), #315, 'distance_accuracy_value', 'NONE');
#84 = ORIENTED_EDGE ( 'NONE', *, *, #179, .F. ) ;
#85 = ADVANCED_FACE ( 'NONE', ( #191 ), #65, .F. ) ;
#86 = DIRECTION ( 'NONE',  ( -0.000000000000000000, -1.000000000000000000, -0.000000000000000000 ) ) ;
#87 = ORIENTED_EDGE ( 'NONE', *, *, #259, .T. ) ;
#88 = ORIENTED_EDGE ( 'NONE', *, *, #627, .T. ) ;
#89 = VERTEX_POINT ( 'NONE', #51 ) ;
#90 = DIRECTION ( 'NONE',  ( 0.000000000000000000, 0.000000000000000000, -1.000000000000000000 ) ) ;
#91 = DIRECTION ( 'NONE',  ( 0.000000000000000000, 0.000000000000000000, -1.000000000000000000 ) ) ;
#92 = ORIENTED_EDGE ( 'NONE', *, *, #134, .T. ) ;
#93 = AXIS2_PLACEMENT_3D ( 'NONE', #193, #557, #209 ) ;
#94 = ORIENTED_EDGE ( 'NONE', *, *, #179, .T. ) ;
#95 = VECTOR ( 'NONE', #21, 1000.000000000000000 ) ;
#96 = EDGE_LOOP ( 'NONE', ( #140, #337, #111, #369 ) ) ;
#97 = EDGE_CURVE ( 'NONE', #39, #620, #468, .T. ) ;
#98 = CARTESIAN_POINT ( 'NONE',  ( 39.00000000000000000, 6.000000000000000000, 0.000000000000000000 ) ) ;
#99 = EDGE_LOOP ( 'NONE', ( #404, #316, #152, #151 ) ) ;
#100 = EDGE_LOOP ( 'NONE', ( #573, #763 ) ) ;
#101 = ORIENTED_EDGE ( 'NONE', *, *, #43, .T. ) ;
#102 = ORIENTED_EDGE ( 'NONE', *, *, #423, .F. ) ;
#103 = FACE_BOUND ( 'NONE', #508, .T. ) ;
#104 = EDGE_LOOP ( 'NONE', ( #636, #257, #261, #82 ) ) ;
#105 = CARTESIAN_POINT ( 'NONE',  ( 0.000000000000000000, 6.000000000000000000, -30.00000000000000000 ) ) ;
#106 = AXIS2_PLACEMENT_3D ( 'NONE', #242, #587, #230 ) ;
#107 = AXIS2_PLACEMENT_3D ( 'NONE', #203, #728, #434 ) ;
#108 = CARTESIAN_POINT ( 'NONE',  ( 16.00956587608467174, 6.000000000000000000, -3.650004692615753665 ) ) ;
#109 = FACE_BOUND ( 'NONE', #416, .T. ) ;
#110 = PRODUCT_DEFINITION_SHAPE ( 'NONE', 'NONE',  #426 ) ;
#111 = ORIENTED_EDGE ( 'NONE', *, *, #153, .T. ) ;
#112 = DIRECTION ( 'NONE',  ( 0.000000000000000000, 0.000000000000000000, 1.000000000000000000 ) ) ;
#113 = DIRECTION ( 'NONE',  ( 0.000000000000000000, 1.000000000000000000, 0.000000000000000000 ) ) ;
#114 = CARTESIAN_POINT ( 'NONE',  ( 36.00000000000009948, 6.000000000000000000, -14.99999999999999822 ) ) ;
#115 = VERTEX_POINT ( 'NONE', #360 ) ;
#116 = DIRECTION ( 'NONE',  ( 0.000000000000000000, 1.000000000000000000, -0.000000000000000000 ) ) ;
#117 = DIRECTION ( 'NONE',  ( 0.000000000000000000, 0.000000000000000000, 1.000000000000000000 ) ) ;
#118 = ORIENTED_EDGE ( 'NONE', *, *, #251, .T. ) ;
#119 = EDGE_CURVE ( 'NONE', #437, #89, #596, .T. ) ;
#120 = CARTESIAN_POINT ( 'NONE',  ( 16.00000000000000000, 6.000000000000000000, -15.00000000000000000 ) ) ;
#121 = CIRCLE ( 'NONE', #386, 1.599999999999997202 ) ;
#122 = DIRECTION ( 'NONE',  ( -0.000000000000000000, -1.000000000000000000, -0.000000000000000000 ) ) ;
#123 = AXIS2_PLACEMENT_3D ( 'NONE', #338, #472, #149 ) ;
#124 = EDGE_LOOP ( 'NONE', ( #206, #101, #342, #722 ) ) ;
#125 = LINE ( 'NONE', #661, #595 ) ;
#126 = CARTESIAN_POINT ( 'NONE',  ( 6.250000000000000000, 6.000000000000000000, -12.89999999999999858 ) ) ;
#127 = CARTESIAN_POINT ( 'NONE',  ( 16.00956587608467174, 0.000000000000000000, -5.250004692615755530 ) ) ;
#128 = EDGE_CURVE ( 'NONE', #450, #697, #334, .T. ) ;
#129 = CARTESIAN_POINT ( 'NONE',  ( 16.00000000000000000, 6.000000000000000000, -13.39999999999999680 ) ) ;
#130 = DIRECTION ( 'NONE',  ( -0.000000000000000000, -1.000000000000000000, -0.000000000000000000 ) ) ;
#131 = LINE ( 'NONE', #74, #491 ) ;
#132 = VECTOR ( 'NONE', #247, 1000.000000000000000 ) ;
#133 = DIRECTION ( 'NONE',  ( 0.000000000000000000, 0.000000000000000000, 1.000000000000000000 ) ) ;
#134 = EDGE_CURVE ( 'NONE', #210, #381, #537, .T. ) ;
#135 =( NAMED_UNIT ( * ) SI_UNIT ( $, .STERADIAN. ) SOLID_ANGLE_UNIT ( ) );
#136 = FACE_OUTER_BOUND ( 'NONE', #146, .T. ) ;
#137 = CYLINDRICAL_SURFACE ( 'NONE', #658, 1.600000000000001643 ) ;
#138 = ADVANCED_FACE ( 'NONE', ( #356 ), #539, .F. ) ;
#139 = ORIENTED_EDGE ( 'NONE', *, *, #522, .T. ) ;
#140 = ORIENTED_EDGE ( 'NONE', *, *, #320, .F. ) ;
#141 = CYLINDRICAL_SURFACE ( 'NONE', #568, 2.100000000000000977 ) ;
#142 = AXIS2_PLACEMENT_3D ( 'NONE', #4, #240, #723 ) ;
#143 = AXIS2_PLACEMENT_3D ( 'NONE', #249, #295, #133 ) ;
#144 = FILL_AREA_STYLE ('',( #197 ) ) ;
#145 = AXIS2_PLACEMENT_3D ( 'NONE', #769, #622, #90 ) ;
#146 = EDGE_LOOP ( 'NONE', ( #154, #536, #635, #30 ) ) ;
#147 = EDGE_CURVE ( 'NONE', #718, #229, #482, .T. ) ;
#148 = ORIENTED_EDGE ( 'NONE', *, *, #218, .T. ) ;
#149 = DIRECTION ( 'NONE',  ( 0.000000000000000000, 0.000000000000000000, -1.000000000000000000 ) ) ;
#150 = LINE ( 'NONE', #453, #683 ) ;
#151 = ORIENTED_EDGE ( 'NONE', *, *, #218, .F. ) ;
#152 = ORIENTED_EDGE ( 'NONE', *, *, #610, .T. ) ;
#153 = EDGE_CURVE ( 'NONE', #322, #115, #188, .T. ) ;
#154 = ORIENTED_EDGE ( 'NONE', *, *, #119, .T. ) ;
#155 = ORIENTED_EDGE ( 'NONE', *, *, #26, .T. ) ;
#156 = EDGE_CURVE ( 'NONE', #23, #180, #125, .T. ) ;
#157 = CIRCLE ( 'NONE', #642, 1.600000000000001643 ) ;
#158 = FACE_BOUND ( 'NONE', #564, .T. ) ;
#159 = AXIS2_PLACEMENT_3D ( 'NONE', #105, #25, #217 ) ;
#160 = APPLICATION_CONTEXT ( 'automotive_design' ) ;
#161 = EDGE_LOOP ( 'NONE', ( #767, #684, #518, #373 ) ) ;
#162 = ORIENTED_EDGE ( 'NONE', *, *, #352, .F. ) ;
#163 = ORIENTED_EDGE ( 'NONE', *, *, #610, .F. ) ;
#164 = EDGE_CURVE ( 'NONE', #381, #689, #121, .T. ) ;
#165 = CARTESIAN_POINT ( 'NONE',  ( 16.00000000000000000, 0.000000000000000000, -13.39999999999999680 ) ) ;
#166 = FACE_OUTER_BOUND ( 'NONE', #507, .T. ) ;
#167 = CARTESIAN_POINT ( 'NONE',  ( 36.00000000000009948, 6.000000000000000000, -13.40000000000000036 ) ) ;
#168 = EDGE_CURVE ( 'NONE', #267, #229, #292, .T. ) ;
#169 = DIRECTION ( 'NONE',  ( 0.000000000000000000, 0.000000000000000000, -1.000000000000000000 ) ) ;
#170 = DIRECTION ( 'NONE',  ( 0.000000000000000000, -0.000000000000000000, -1.000000000000000000 ) ) ;
#171 = ORIENTED_EDGE ( 'NONE', *, *, #695, .T. ) ;
#172 = DIRECTION ( 'NONE',  ( 0.000000000000000000, 0.000000000000000000, -1.000000000000000000 ) ) ;
#173 = AXIS2_PLACEMENT_3D ( 'NONE', #127, #116, #294 ) ;
#174 = CARTESIAN_POINT ( 'NONE',  ( 16.00000000000000000, 6.000000000000000000, -15.00000000000000000 ) ) ;
#175 = DIRECTION ( 'NONE',  ( 0.000000000000000000, -1.000000000000000000, 0.000000000000000000 ) ) ;
#176 = ORIENTED_EDGE ( 'NONE', *, *, #493, .F. ) ;
#177 = DIRECTION ( 'NONE',  ( 0.000000000000000000, 0.000000000000000000, 1.000000000000000000 ) ) ;
#178 = DIRECTION ( 'NONE',  ( 0.000000000000000000, 0.000000000000000000, 1.000000000000000000 ) ) ;
#179 = EDGE_CURVE ( 'NONE', #229, #718, #415, .T. ) ;
#180 = VERTEX_POINT ( 'NONE', #418 ) ;
#181 = LINE ( 'NONE', #729, #604 ) ;
#182 = EDGE_CURVE ( 'NONE', #505, #443, #181, .T. ) ;
#183 = VERTEX_POINT ( 'NONE', #476 ) ;
#184 = FACE_OUTER_BOUND ( 'NONE', #34, .T. ) ;
#185 = VECTOR ( 'NONE', #778, 1000.000000000000000 ) ;
#186 = CIRCLE ( 'NONE', #311, 1.599999999999998090 ) ;
#187 = FACE_OUTER_BOUND ( 'NONE', #646, .T. ) ;
#188 = LINE ( 'NONE', #471, #657 ) ;
#189 = DIRECTION ( 'NONE',  ( 1.000000000000000000, 0.000000000000000000, 0.000000000000000000 ) ) ;
#190 = LINE ( 'NONE', #68, #761 ) ;
#191 = FACE_OUTER_BOUND ( 'NONE', #634, .T. ) ;
#192 = FACE_OUTER_BOUND ( 'NONE', #496, .T. ) ;
#193 = CARTESIAN_POINT ( 'NONE',  ( 25.75000000000000355, 6.000000000000000000, -15.00000000000000000 ) ) ;
#194 = EDGE_CURVE ( 'NONE', #586, #448, #69, .T. ) ;
#195 = DIRECTION ( 'NONE',  ( 0.000000000000000000, 0.000000000000000000, -1.000000000000000000 ) ) ;
#196 = CIRCLE ( 'NONE', #143, 1.599999999999997202 ) ;
#197 = FILL_AREA_STYLE_COLOUR ( '', #374 ) ;
#198 = CARTESIAN_POINT ( 'NONE',  ( 25.75000000000000355, 6.000000000000000000, -15.00000000000000000 ) ) ;
#199 = EDGE_CURVE ( 'NONE', #449, #620, #237, .T. ) ;
#200 = DIRECTION ( 'NONE',  ( -0.000000000000000000, -1.000000000000000000, -0.000000000000000000 ) ) ;
#201 = ORIENTED_EDGE ( 'NONE', *, *, #623, .T. ) ;
#202 = ORIENTED_EDGE ( 'NONE', *, *, #63, .F. ) ;
#203 = CARTESIAN_POINT ( 'NONE',  ( 36.00000000000009948, 0.000000000000000000, -14.99999999999999822 ) ) ;
#204 = DIRECTION ( 'NONE',  ( -0.000000000000000000, -1.000000000000000000, -0.000000000000000000 ) ) ;
#205 = VERTEX_POINT ( 'NONE', #245 ) ;
#206 = ORIENTED_EDGE ( 'NONE', *, *, #423, .T. ) ;
#207 = CIRCLE ( 'NONE', #429, 2.100000000000000977 ) ;
#208 = AXIS2_PLACEMENT_3D ( 'NONE', #277, #571, #91 ) ;
#209 = DIRECTION ( 'NONE',  ( 0.000000000000000000, 0.000000000000000000, -1.000000000000000000 ) ) ;
#210 = VERTEX_POINT ( 'NONE', #655 ) ;
#211 = ORIENTED_EDGE ( 'NONE', *, *, #35, .F. ) ;
#212 = ORIENTED_EDGE ( 'NONE', *, *, #732, .T. ) ;
#213 = ORIENTED_EDGE ( 'NONE', *, *, #333, .F. ) ;
#214 = ORIENTED_EDGE ( 'NONE', *, *, #768, .F. ) ;
#215 = CARTESIAN_POINT ( 'NONE',  ( 25.75000000000000355, 0.000000000000000000, -12.89999999999999858 ) ) ;
#216 = ORIENTED_EDGE ( 'NONE', *, *, #695, .F. ) ;
#217 = DIRECTION ( 'NONE',  ( 1.000000000000000000, 0.000000000000000000, -0.000000000000000000 ) ) ;
#218 = EDGE_CURVE ( 'NONE', #448, #442, #490, .T. ) ;
#219 = CARTESIAN_POINT ( 'NONE',  ( 36.00000000000000000, 6.000000000000000000, -26.59999999999999432 ) ) ;
#220 = ORIENTED_EDGE ( 'NONE', *, *, #748, .T. ) ;
#221 = LINE ( 'NONE', #576, #81 ) ;
#222 = CARTESIAN_POINT ( 'NONE',  ( 36.00000000000009948, 6.000000000000000000, -13.40000000000000036 ) ) ;
#223 = ADVANCED_FACE ( 'NONE', ( #184 ), #618, .F. ) ;
#224 = DIRECTION ( 'NONE',  ( 0.000000000000000000, 0.000000000000000000, 1.000000000000000000 ) ) ;
#225 = ORIENTED_EDGE ( 'NONE', *, *, #6, .F. ) ;
#226 = FACE_OUTER_BOUND ( 'NONE', #524, .T. ) ;
#227 = CARTESIAN_POINT ( 'NONE',  ( 36.00000000000020606, 6.000000000000000000, -6.599999999999995204 ) ) ;
#228 = FACE_BOUND ( 'NONE', #700, .T. ) ;
#229 = VERTEX_POINT ( 'NONE', #255 ) ;
#230 = DIRECTION ( 'NONE',  ( 0.000000000000000000, 0.000000000000000000, 1.000000000000000000 ) ) ;
#231 = CARTESIAN_POINT ( 'NONE',  ( 16.00956587608467174, 6.000000000000000000, -5.250004692615755530 ) ) ;
#232 = CIRCLE ( 'NONE', #530, 1.600000000000000755 ) ;
#233 = CIRCLE ( 'NONE', #41, 2.100000000000000977 ) ;
#234 = EDGE_CURVE ( 'NONE', #504, #115, #708, .T. ) ;
#235 = VERTEX_POINT ( 'NONE', #378 ) ;
#236 = EDGE_LOOP ( 'NONE', ( #307, #148 ) ) ;
#237 = LINE ( 'NONE', #413, #58 ) ;
#238 = DIRECTION ( 'NONE',  ( 0.000000000000000000, 0.000000000000000000, -1.000000000000000000 ) ) ;
#239 = ORIENTED_EDGE ( 'NONE', *, *, #672, .F. ) ;
#240 = DIRECTION ( 'NONE',  ( 0.000000000000000000, 1.000000000000000000, 0.000000000000000000 ) ) ;
#241 = CARTESIAN_POINT ( 'NONE',  ( 16.00956587608467174, 0.000000000000000000, -5.250004692615755530 ) ) ;
#242 = CARTESIAN_POINT ( 'NONE',  ( 39.00000000000000000, 6.000000000000000000, 0.000000000000000000 ) ) ;
#243 = VECTOR ( 'NONE', #427, 1000.000000000000000 ) ;
#244 = CARTESIAN_POINT ( 'NONE',  ( 16.00956587608467174, 0.000000000000000000, -3.650004692615753665 ) ) ;
#245 = CARTESIAN_POINT ( 'NONE',  ( 16.00000000000000000, 6.000000000000000000, -26.35000000000000142 ) ) ;
#246 = APPLICATION_PROTOCOL_DEFINITION ( 'draft international standard', 'automotive_design', 1998, #160 ) ;
#247 = DIRECTION ( 'NONE',  ( -0.000000000000000000, -1.000000000000000000, -0.000000000000000000 ) ) ;
#248 = LINE ( 'NONE', #447, #567 ) ;
#249 = CARTESIAN_POINT ( 'NONE',  ( 36.00000000000000000, 0.000000000000000000, -24.99999999999999645 ) ) ;
#250 = CARTESIAN_POINT ( 'NONE',  ( 36.00000000000020606, 0.000000000000000000, -4.999999999999997335 ) ) ;
#251 = EDGE_CURVE ( 'NONE', #36, #183, #364, .T. ) ;
#252 = DIRECTION ( 'NONE',  ( 0.000000000000000000, 0.000000000000000000, 1.000000000000000000 ) ) ;
#253 = AXIS2_PLACEMENT_3D ( 'NONE', #73, #675, #613 ) ;
#254 = CIRCLE ( 'NONE', #515, 2.100000000000000977 ) ;
#255 = CARTESIAN_POINT ( 'NONE',  ( 16.00000000000000000, 0.000000000000000000, -16.60000000000000142 ) ) ;
#256 = ORIENTED_EDGE ( 'NONE', *, *, #692, .T. ) ;
#257 = ORIENTED_EDGE ( 'NONE', *, *, #199, .T. ) ;
#258 = DIRECTION ( 'NONE',  ( -0.000000000000000000, -1.000000000000000000, -0.000000000000000000 ) ) ;
#259 = EDGE_CURVE ( 'NONE', #183, #31, #248, .T. ) ;
#260 = FACE_OUTER_BOUND ( 'NONE', #99, .T. ) ;
#261 = ORIENTED_EDGE ( 'NONE', *, *, #97, .F. ) ;
#262 = ORIENTED_EDGE ( 'NONE', *, *, #627, .F. ) ;
#263 = FACE_OUTER_BOUND ( 'NONE', #329, .T. ) ;
#264 = EDGE_CURVE ( 'NONE', #625, #235, #351, .T. ) ;
#265 = CARTESIAN_POINT ( 'NONE',  ( 6.250000000000000000, 6.000000000000000000, -12.89999999999999858 ) ) ;
#266 = EDGE_CURVE ( 'NONE', #235, #625, #18, .T. ) ;
#267 = VERTEX_POINT ( 'NONE', #746 ) ;
#268 = AXIS2_PLACEMENT_3D ( 'NONE', #489, #200, #499 ) ;
#269 = VECTOR ( 'NONE', #44, 1000.000000000000000 ) ;
#270 = ORIENTED_EDGE ( 'NONE', *, *, #726, .F. ) ;
#271 = EDGE_LOOP ( 'NONE', ( #676, #171, #24, #624 ) ) ;
#272 = ORIENTED_EDGE ( 'NONE', *, *, #372, .F. ) ;
#273 = EDGE_LOOP ( 'NONE', ( #391, #291 ) ) ;
#274 = ORIENTED_EDGE ( 'NONE', *, *, #436, .F. ) ;
#275 = AXIS2_PLACEMENT_3D ( 'NONE', #241, #481, #280 ) ;
#276 = DIRECTION ( 'NONE',  ( -0.000000000000000000, -1.000000000000000000, -0.000000000000000000 ) ) ;
#277 = CARTESIAN_POINT ( 'NONE',  ( 25.75000000000000355, 0.000000000000000000, -15.00000000000000000 ) ) ;
#278 = PLANE ( 'NONE',  #747 ) ;
#279 = CYLINDRICAL_SURFACE ( 'NONE', #145, 2.100000000000000977 ) ;
#280 = DIRECTION ( 'NONE',  ( 0.000000000000000000, 0.000000000000000000, -1.000000000000000000 ) ) ;
#281 = CARTESIAN_POINT ( 'NONE',  ( 16.00000000000000000, 6.000000000000000000, -13.39999999999999680 ) ) ;
#282 = DIRECTION ( 'NONE',  ( -0.000000000000000000, -1.000000000000000000, -0.000000000000000000 ) ) ;
#283 = DIRECTION ( 'NONE',  ( -0.000000000000000000, -1.000000000000000000, -0.000000000000000000 ) ) ;
#284 = DIRECTION ( 'NONE',  ( 0.000000000000000000, 1.000000000000000000, -0.000000000000000000 ) ) ;
#285 = CARTESIAN_POINT ( 'NONE',  ( 36.00000000000020606, 6.000000000000000000, -4.999999999999997335 ) ) ;
#286 = ORIENTED_EDGE ( 'NONE', *, *, #333, .T. ) ;
#287 = CARTESIAN_POINT ( 'NONE',  ( 36.00000000000020606, 6.000000000000000000, -4.999999999999997335 ) ) ;
#288 = AXIS2_PLACEMENT_3D ( 'NONE', #57, #410, #779 ) ;
#289 = VECTOR ( 'NONE', #717, 1000.000000000000000 ) ;
#290 = DIRECTION ( 'NONE',  ( -0.000000000000000000, -1.000000000000000000, -0.000000000000000000 ) ) ;
#291 = ORIENTED_EDGE ( 'NONE', *, *, #417, .F. ) ;
#292 = LINE ( 'NONE', #713, #577 ) ;
#293 = ADVANCED_FACE ( 'NONE', ( #435 ), #137, .F. ) ;
#294 = DIRECTION ( 'NONE',  ( 0.000000000000000000, 0.000000000000000000, -1.000000000000000000 ) ) ;
#295 = DIRECTION ( 'NONE',  ( 0.000000000000000000, 1.000000000000000000, 0.000000000000000000 ) ) ;
#296 = EDGE_CURVE ( 'NONE', #205, #586, #232, .T. ) ;
#297 = DIRECTION ( 'NONE',  ( -0.000000000000000000, -1.000000000000000000, -0.000000000000000000 ) ) ;
#298 = AXIS2_PLACEMENT_3D ( 'NONE', #771, #175, #409 ) ;
#299 =( GEOMETRIC_REPRESENTATION_CONTEXT ( 3 ) GLOBAL_UNCERTAINTY_ASSIGNED_CONTEXT ( ( #703 ) ) GLOBAL_UNIT_ASSIGNED_CONTEXT ( ( #552, #731, #135 ) ) REPRESENTATION_CONTEXT ( 'NONE', 'WORKASPACE' ) );
#300 = DIRECTION ( 'NONE',  ( 0.000000000000000000, 1.000000000000000000, 0.000000000000000000 ) ) ;
#301 = DIRECTION ( 'NONE',  ( 0.000000000000000000, 0.000000000000000000, 1.000000000000000000 ) ) ;
#302 = CARTESIAN_POINT ( 'NONE',  ( 16.00000000000000000, 6.000000000000000000, -26.35000000000000142 ) ) ;
#303 = DIRECTION ( 'NONE',  ( -0.000000000000000000, -1.000000000000000000, -0.000000000000000000 ) ) ;
#304 = ADVANCED_FACE ( 'NONE', ( #260 ), #673, .F. ) ;
#305 = CARTESIAN_POINT ( 'NONE',  ( 36.00000000000020606, 0.000000000000000000, -6.599999999999995204 ) ) ;
#306 = FACE_OUTER_BOUND ( 'NONE', #641, .T. ) ;
#307 = ORIENTED_EDGE ( 'NONE', *, *, #726, .T. ) ;
#308 = MANIFOLD_SOLID_BREP ( 'Í¹Ì¨-À­Éì1', #680 ) ;
#309 = STYLED_ITEM ( 'NONE', ( #494 ), #308 ) ;
#310 = CYLINDRICAL_SURFACE ( 'NONE', #606, 1.599999999999997202 ) ;
#311 = AXIS2_PLACEMENT_3D ( 'NONE', #347, #344, #178 ) ;
#312 = DIRECTION ( 'NONE',  ( 0.000000000000000000, 0.000000000000000000, 1.000000000000000000 ) ) ;
#313 = ORIENTED_EDGE ( 'NONE', *, *, #97, .T. ) ;
#314 = ORIENTED_EDGE ( 'NONE', *, *, #156, .T. ) ;
#315 =( LENGTH_UNIT ( ) NAMED_UNIT ( * ) SI_UNIT ( .MILLI., .METRE. ) );
#316 = ORIENTED_EDGE ( 'NONE', *, *, #340, .T. ) ;
#317 = ORIENTED_EDGE ( 'NONE', *, *, #407, .F. ) ;
#318 = ORIENTED_EDGE ( 'NONE', *, *, #63, .T. ) ;
#319 = LINE ( 'NONE', #460, #353 ) ;
#320 = EDGE_CURVE ( 'NONE', #397, #504, #27, .T. ) ;
#321 = EDGE_LOOP ( 'NONE', ( #348, #705, #628, #274 ) ) ;
#322 = VERTEX_POINT ( 'NONE', #428 ) ;
#323 = AXIS2_PLACEMENT_3D ( 'NONE', #120, #282, #483 ) ;
#324 = CIRCLE ( 'NONE', #72, 1.599999999999997202 ) ;
#325 = EDGE_CURVE ( 'NONE', #458, #31, #376, .T. ) ;
#326 = ORIENTED_EDGE ( 'NONE', *, *, #147, .T. ) ;
#327 = FACE_BOUND ( 'NONE', #611, .T. ) ;
#328 = ADVANCED_FACE ( 'NONE', ( #306 ), #75, .F. ) ;
#329 = EDGE_LOOP ( 'NONE', ( #582, #712, #92, #479 ) ) ;
#330 = CARTESIAN_POINT ( 'NONE',  ( 25.75000000000000355, 6.000000000000000000, -17.10000000000000142 ) ) ;
#331 = ORIENTED_EDGE ( 'NONE', *, *, #26, .F. ) ;
#332 = CARTESIAN_POINT ( 'NONE',  ( 36.00000000000009948, 0.000000000000000000, -13.40000000000000036 ) ) ;
#333 = EDGE_CURVE ( 'NONE', #31, #458, #750, .T. ) ;
#334 = CIRCLE ( 'NONE', #543, 1.599999999999998090 ) ;
#335 = VECTOR ( 'NONE', #739, 1000.000000000000000 ) ;
#336 = FACE_BOUND ( 'NONE', #32, .T. ) ;
#337 = ORIENTED_EDGE ( 'NONE', *, *, #555, .T. ) ;
#338 = CARTESIAN_POINT ( 'NONE',  ( 16.00956587608467174, 6.000000000000000000, -5.250004692615755530 ) ) ;
#339 = DIRECTION ( 'NONE',  ( -0.000000000000000000, -1.000000000000000000, -0.000000000000000000 ) ) ;
#340 = EDGE_CURVE ( 'NONE', #586, #205, #545, .T. ) ;
#341 = CARTESIAN_POINT ( 'NONE',  ( 16.00956587608467174, 6.000000000000000000, -6.850004692615756952 ) ) ;
#342 = ORIENTED_EDGE ( 'NONE', *, *, #550, .F. ) ;
#343 = PLANE ( 'NONE',  #159 ) ;
#344 = DIRECTION ( 'NONE',  ( 0.000000000000000000, 1.000000000000000000, 0.000000000000000000 ) ) ;
#345 = DIRECTION ( 'NONE',  ( 0.000000000000000000, 1.000000000000000000, 0.000000000000000000 ) ) ;
#346 = CARTESIAN_POINT ( 'NONE',  ( 36.00000000000020606, 6.000000000000000000, -4.999999999999997335 ) ) ;
#347 = CARTESIAN_POINT ( 'NONE',  ( 36.00000000000020606, 6.000000000000000000, -4.999999999999997335 ) ) ;
#348 = ORIENTED_EDGE ( 'NONE', *, *, #43, .F. ) ;
#349 = PLANE ( 'NONE',  #106 ) ;
#350 = CARTESIAN_POINT ( 'NONE',  ( 0.000000000000000000, 0.000000000000000000, 0.000000000000000000 ) ) ;
#351 = CIRCLE ( 'NONE', #9, 1.599999999999998090 ) ;
#352 = EDGE_CURVE ( 'NONE', #501, #437, #150, .T. ) ;
#353 = VECTOR ( 'NONE', #698, 1000.000000000000000 ) ;
#354 = CARTESIAN_POINT ( 'NONE',  ( 16.00000000000000000, 0.000000000000000000, -23.15000000000000213 ) ) ;
#355 = ORIENTED_EDGE ( 'NONE', *, *, #128, .T. ) ;
#356 = FACE_OUTER_BOUND ( 'NONE', #753, .T. ) ;
#357 = PRODUCT_CONTEXT ( 'NONE', #160, 'mechanical' ) ;
#358 = ADVANCED_FACE ( 'NONE', ( #473 ), #535, .F. ) ;
#359 = LINE ( 'NONE', #656, #269 ) ;
#360 = CARTESIAN_POINT ( 'NONE',  ( 6.250000000000000000, 0.000000000000000000, -17.10000000000000142 ) ) ;
#361 = LINE ( 'NONE', #603, #132 ) ;
#362 = CARTESIAN_POINT ( 'NONE',  ( 16.00000000000000000, 6.000000000000000000, -24.75000000000000000 ) ) ;
#363 = APPLICATION_PROTOCOL_DEFINITION ( 'draft international standard', 'automotive_design', 1998, #565 ) ;
#364 = CIRCLE ( 'NONE', #93, 2.100000000000000977 ) ;
#365 = AXIS2_PLACEMENT_3D ( 'NONE', #76, #487, #488 ) ;
#366 = DIRECTION ( 'NONE',  ( 0.000000000000000000, 1.000000000000000000, 0.000000000000000000 ) ) ;
#367 = CARTESIAN_POINT ( 'NONE',  ( 25.75000000000000355, 0.000000000000000000, -15.00000000000000000 ) ) ;
#368 = DIRECTION ( 'NONE',  ( -1.000000000000000000, 0.000000000000000000, -0.000000000000000000 ) ) ;
#369 = ORIENTED_EDGE ( 'NONE', *, *, #234, .F. ) ;
#370 = CARTESIAN_POINT ( 'NONE',  ( 0.000000000000000000, 6.000000000000000000, 0.000000000000000000 ) ) ;
#371 = DIRECTION ( 'NONE',  ( 0.000000000000000000, 0.000000000000000000, -1.000000000000000000 ) ) ;
#372 = EDGE_CURVE ( 'NONE', #115, #504, #233, .T. ) ;
#373 = ORIENTED_EDGE ( 'NONE', *, *, #119, .F. ) ;
#374 = COLOUR_RGB ( '',0.7921568627450980005, 0.8196078431372548767, 0.9333333333333333481 ) ;
#375 = DIRECTION ( 'NONE',  ( -0.000000000000000000, -1.000000000000000000, -0.000000000000000000 ) ) ;
#376 = CIRCLE ( 'NONE', #484, 2.100000000000000977 ) ;
#377 = AXIS2_PLACEMENT_3D ( 'NONE', #519, #375, #562 ) ;
#378 = CARTESIAN_POINT ( 'NONE',  ( 36.00000000000020606, 0.000000000000000000, -3.399999999999999467 ) ) ;
#379 = ORIENTED_EDGE ( 'NONE', *, *, #168, .T. ) ;
#380 = ORIENTED_EDGE ( 'NONE', *, *, #182, .T. ) ;
#381 = VERTEX_POINT ( 'NONE', #653 ) ;
#382 = DIRECTION ( 'NONE',  ( -0.000000000000000000, -1.000000000000000000, -0.000000000000000000 ) ) ;
#383 = ORIENTED_EDGE ( 'NONE', *, *, #748, .F. ) ;
#384 = ORIENTED_EDGE ( 'NONE', *, *, #399, .T. ) ;
#385 = EDGE_LOOP ( 'NONE', ( #202, #475 ) ) ;
#386 = AXIS2_PLACEMENT_3D ( 'NONE', #422, #486, #425 ) ;
#387 = VECTOR ( 'NONE', #122, 1000.000000000000000 ) ;
#388 = ADVANCED_FACE ( 'NONE', ( #187 ), #643, .F. ) ;
#389 = CIRCLE ( 'NONE', #737, 1.600000000000002531 ) ;
#390 = CARTESIAN_POINT ( 'NONE',  ( 0.000000000000000000, 0.000000000000000000, 0.000000000000000000 ) ) ;
#391 = ORIENTED_EDGE ( 'NONE', *, *, #128, .F. ) ;
#392 = CARTESIAN_POINT ( 'NONE',  ( 16.00000000000000000, 6.000000000000000000, -24.75000000000000000 ) ) ;
#393 = CARTESIAN_POINT ( 'NONE',  ( 16.00956587608467174, 6.000000000000000000, -5.250004692615755530 ) ) ;
#394 = EDGE_LOOP ( 'NONE', ( #220, #621, #84, #755 ) ) ;
#395 = CYLINDRICAL_SURFACE ( 'NONE', #377, 1.599999999999997202 ) ;
#396 = FACE_BOUND ( 'NONE', #100, .T. ) ;
#397 = VERTEX_POINT ( 'NONE', #126 ) ;
#398 = CARTESIAN_POINT ( 'NONE',  ( 39.00000000000000000, 6.000000000000000000, -30.00000000000000000 ) ) ;
#399 = EDGE_CURVE ( 'NONE', #450, #625, #477, .T. ) ;
#400 = CARTESIAN_POINT ( 'NONE',  ( 16.00000000000000000, 0.000000000000000000, -26.35000000000000142 ) ) ;
#401 = AXIS2_PLACEMENT_3D ( 'NONE', #287, #528, #719 ) ;
#402 = CIRCLE ( 'NONE', #531, 1.599999999999997202 ) ;
#403 = CARTESIAN_POINT ( 'NONE',  ( 36.00000000000000000, 0.000000000000000000, -23.40000000000000213 ) ) ;
#404 = ORIENTED_EDGE ( 'NONE', *, *, #194, .F. ) ;
#405 = AXIS2_PLACEMENT_3D ( 'NONE', #513, #382, #647 ) ;
#406 = DIRECTION ( 'NONE',  ( -0.000000000000000000, -1.000000000000000000, -0.000000000000000000 ) ) ;
#407 = EDGE_CURVE ( 'NONE', #29, #501, #359, .T. ) ;
#408 = CARTESIAN_POINT ( 'NONE',  ( 36.00000000000000000, 6.000000000000000000, -24.99999999999999645 ) ) ;
#409 = DIRECTION ( 'NONE',  ( 0.000000000000000000, -0.000000000000000000, -1.000000000000000000 ) ) ;
#410 = DIRECTION ( 'NONE',  ( 0.000000000000000000, 1.000000000000000000, 0.000000000000000000 ) ) ;
#411 = DIRECTION ( 'NONE',  ( 0.000000000000000000, 0.000000000000000000, 1.000000000000000000 ) ) ;
#412 = ORIENTED_EDGE ( 'NONE', *, *, #194, .T. ) ;
#413 = CARTESIAN_POINT ( 'NONE',  ( 16.00956587608467174, 6.000000000000000000, -3.650004692615754109 ) ) ;
#414 = CARTESIAN_POINT ( 'NONE',  ( 0.000000000000000000, 0.000000000000000000, 0.000000000000000000 ) ) ;
#415 = CIRCLE ( 'NONE', #506, 1.600000000000002531 ) ;
#416 = EDGE_LOOP ( 'NONE', ( #211, #216 ) ) ;
#417 = EDGE_CURVE ( 'NONE', #697, #450, #186, .T. ) ;
#418 = CARTESIAN_POINT ( 'NONE',  ( 39.00000000000000000, 6.000000000000000000, -30.00000000000000000 ) ) ;
#419 = CIRCLE ( 'NONE', #275, 1.600000000000001643 ) ;
#420 = AXIS2_PLACEMENT_3D ( 'NONE', #198, #12, #15 ) ;
#421 = VECTOR ( 'NONE', #86, 1000.000000000000000 ) ;
#422 = CARTESIAN_POINT ( 'NONE',  ( 36.00000000000009948, 0.000000000000000000, -14.99999999999999822 ) ) ;
#423 = EDGE_CURVE ( 'NONE', #46, #444, #402, .T. ) ;
#424 = DIRECTION ( 'NONE',  ( 0.000000000000000000, 0.000000000000000000, -1.000000000000000000 ) ) ;
#425 = DIRECTION ( 'NONE',  ( 0.000000000000000000, 0.000000000000000000, 1.000000000000000000 ) ) ;
#426 = PRODUCT_DEFINITION ( 'æœ', '', #42, #639 ) ;
#427 = DIRECTION ( 'NONE',  ( -0.000000000000000000, -1.000000000000000000, -0.000000000000000000 ) ) ;
#428 = CARTESIAN_POINT ( 'NONE',  ( 6.250000000000000000, 6.000000000000000000, -17.10000000000000142 ) ) ;
#429 = AXIS2_PLACEMENT_3D ( 'NONE', #517, #37, #224 ) ;
#430 = VECTOR ( 'NONE', #290, 1000.000000000000000 ) ;
#431 = FACE_OUTER_BOUND ( 'NONE', #394, .T. ) ;
#432 = EDGE_CURVE ( 'NONE', #46, #533, #520, .T. ) ;
#433 = SURFACE_SIDE_STYLE ('',( #735 ) ) ;
#434 = DIRECTION ( 'NONE',  ( 0.000000000000000000, 0.000000000000000000, 1.000000000000000000 ) ) ;
#435 = FACE_OUTER_BOUND ( 'NONE', #271, .T. ) ;
#436 = EDGE_CURVE ( 'NONE', #3, #533, #644, .T. ) ;
#437 = VERTEX_POINT ( 'NONE', #414 ) ;
#438 = ORIENTED_EDGE ( 'NONE', *, *, #555, .F. ) ;
#439 = DIRECTION ( 'NONE',  ( -0.000000000000000000, -1.000000000000000000, -0.000000000000000000 ) ) ;
#440 = CARTESIAN_POINT ( 'NONE',  ( 16.00000000000000000, 6.000000000000000000, -24.75000000000000000 ) ) ;
#441 = EDGE_CURVE ( 'NONE', #758, #689, #64, .T. ) ;
#442 = VERTEX_POINT ( 'NONE', #400 ) ;
#443 = VERTEX_POINT ( 'NONE', #48 ) ;
#444 = VERTEX_POINT ( 'NONE', #648 ) ;
#445 =( NAMED_UNIT ( * ) SI_UNIT ( $, .STERADIAN. ) SOLID_ANGLE_UNIT ( ) );
#446 = AXIS2_PLACEMENT_3D ( 'NONE', #776, #339, #169 ) ;
#447 = CARTESIAN_POINT ( 'NONE',  ( 25.75000000000000355, 6.000000000000000000, -12.89999999999999858 ) ) ;
#448 = VERTEX_POINT ( 'NONE', #354 ) ;
#449 = VERTEX_POINT ( 'NONE', #108 ) ;
#450 = VERTEX_POINT ( 'NONE', #594 ) ;
#451 = ORIENTED_EDGE ( 'NONE', *, *, #264, .T. ) ;
#452 = EDGE_CURVE ( 'NONE', #620, #39, #419, .T. ) ;
#453 = CARTESIAN_POINT ( 'NONE',  ( 0.000000000000000000, 6.000000000000000000, 0.000000000000000000 ) ) ;
#454 = ORIENTED_EDGE ( 'NONE', *, *, #417, .T. ) ;
#455 = ORIENTED_EDGE ( 'NONE', *, *, #407, .T. ) ;
#456 = AXIS2_PLACEMENT_3D ( 'NONE', #285, #523, #633 ) ;
#457 = CIRCLE ( 'NONE', #123, 1.600000000000001643 ) ;
#458 = VERTEX_POINT ( 'NONE', #526 ) ;
#459 = ORIENTED_EDGE ( 'NONE', *, *, #264, .F. ) ;
#460 = CARTESIAN_POINT ( 'NONE',  ( 39.00000000000000000, 0.000000000000000000, 0.000000000000000000 ) ) ;
#461 = LINE ( 'NONE', #281, #668 ) ;
#462 = CARTESIAN_POINT ( 'NONE',  ( 16.00000000000000000, 0.000000000000000000, -24.75000000000000000 ) ) ;
#463 = DIRECTION ( 'NONE',  ( 0.000000000000000000, 1.000000000000000000, 0.000000000000000000 ) ) ;
#464 = FACE_BOUND ( 'NONE', #236, .T. ) ;
#465 = ORIENTED_EDGE ( 'NONE', *, *, #452, .T. ) ;
#466 = DIRECTION ( 'NONE',  ( -1.000000000000000000, -0.000000000000000000, -0.000000000000000000 ) ) ;
#467 = LINE ( 'NONE', #59, #710 ) ;
#468 = CIRCLE ( 'NONE', #173, 1.600000000000001643 ) ;
#469 = AXIS2_PLACEMENT_3D ( 'NONE', #370, #667, #368 ) ;
#470 = FACE_OUTER_BOUND ( 'NONE', #161, .T. ) ;
#471 = CARTESIAN_POINT ( 'NONE',  ( 6.250000000000000000, 6.000000000000000000, -17.10000000000000142 ) ) ;
#472 = DIRECTION ( 'NONE',  ( 0.000000000000000000, 1.000000000000000000, -0.000000000000000000 ) ) ;
#473 = FACE_OUTER_BOUND ( 'NONE', #614, .T. ) ;
#474 = CYLINDRICAL_SURFACE ( 'NONE', #456, 1.599999999999998090 ) ;
#475 = ORIENTED_EDGE ( 'NONE', *, *, #542, .F. ) ;
#476 = CARTESIAN_POINT ( 'NONE',  ( 25.75000000000000355, 6.000000000000000000, -12.89999999999999858 ) ) ;
#477 = LINE ( 'NONE', #227, #430 ) ;
#478 = EDGE_CURVE ( 'NONE', #443, #437, #467, .T. ) ;
#479 = ORIENTED_EDGE ( 'NONE', *, *, #623, .F. ) ;
#480 = DIRECTION ( 'NONE',  ( -0.000000000000000000, -1.000000000000000000, -0.000000000000000000 ) ) ;
#481 = DIRECTION ( 'NONE',  ( 0.000000000000000000, 1.000000000000000000, -0.000000000000000000 ) ) ;
#482 = CIRCLE ( 'NONE', #288, 1.600000000000002531 ) ;
#483 = DIRECTION ( 'NONE',  ( 0.000000000000000000, 0.000000000000000000, -1.000000000000000000 ) ) ;
#484 = AXIS2_PLACEMENT_3D ( 'NONE', #367, #549, #608 ) ;
#485 = CARTESIAN_POINT ( 'NONE',  ( 36.00000000000000000, 6.000000000000000000, -24.99999999999999645 ) ) ;
#486 = DIRECTION ( 'NONE',  ( 0.000000000000000000, 1.000000000000000000, 0.000000000000000000 ) ) ;
#487 = DIRECTION ( 'NONE',  ( 0.000000000000000000, 1.000000000000000000, 0.000000000000000000 ) ) ;
#488 = DIRECTION ( 'NONE',  ( 0.000000000000000000, 0.000000000000000000, 1.000000000000000000 ) ) ;
#489 = CARTESIAN_POINT ( 'NONE',  ( 36.00000000000009948, 6.000000000000000000, -14.99999999999999822 ) ) ;
#490 = CIRCLE ( 'NONE', #142, 1.600000000000000755 ) ;
#491 = VECTOR ( 'NONE', #283, 1000.000000000000000 ) ;
#492 = DIRECTION ( 'NONE',  ( -0.000000000000000000, -1.000000000000000000, -0.000000000000000000 ) ) ;
#493 = EDGE_CURVE ( 'NONE', #629, #267, #736, .T. ) ;
#494 = PRESENTATION_STYLE_ASSIGNMENT (( #13 ) ) ;
#495 = ORIENTED_EDGE ( 'NONE', *, *, #325, .F. ) ;
#496 = EDGE_LOOP ( 'NONE', ( #118, #87, #495, #262 ) ) ;
#497 = FACE_OUTER_BOUND ( 'NONE', #321, .T. ) ;
#498 = EDGE_CURVE ( 'NONE', #183, #36, #254, .T. ) ;
#499 = DIRECTION ( 'NONE',  ( 0.000000000000000000, 0.000000000000000000, -1.000000000000000000 ) ) ;
#500 = ORIENTED_EDGE ( 'NONE', *, *, #164, .F. ) ;
#501 = VERTEX_POINT ( 'NONE', #70 ) ;
#502 =( NAMED_UNIT ( * ) PLANE_ANGLE_UNIT ( ) SI_UNIT ( $, .RADIAN. ) );
#503 = DIRECTION ( 'NONE',  ( 0.000000000000000000, 1.000000000000000000, 0.000000000000000000 ) ) ;
#504 = VERTEX_POINT ( 'NONE', #674 ) ;
#505 = VERTEX_POINT ( 'NONE', #607 ) ;
#506 = AXIS2_PLACEMENT_3D ( 'NONE', #7, #663, #544 ) ;
#507 = EDGE_LOOP ( 'NONE', ( #455, #212, #314, #749 ) ) ;
#508 = EDGE_LOOP ( 'NONE', ( #558, #56 ) ) ;
#509 = DIRECTION ( 'NONE',  ( 0.000000000000000000, 0.000000000000000000, 1.000000000000000000 ) ) ;
#510 = EDGE_LOOP ( 'NONE', ( #256, #214, #677, #139 ) ) ;
#511 = ORIENTED_EDGE ( 'NONE', *, *, #498, .T. ) ;
#512 = ORIENTED_EDGE ( 'NONE', *, *, #436, .T. ) ;
#513 = CARTESIAN_POINT ( 'NONE',  ( 36.00000000000009948, 6.000000000000000000, -14.99999999999999822 ) ) ;
#514 = MECHANICAL_DESIGN_GEOMETRIC_PRESENTATION_REPRESENTATION (  '', ( #309 ), #299 ) ;
#515 = AXIS2_PLACEMENT_3D ( 'NONE', #53, #284, #548 ) ;
#516 = VECTOR ( 'NONE', #701, 1000.000000000000000 ) ;
#517 = CARTESIAN_POINT ( 'NONE',  ( 6.250000000000000000, 6.000000000000000000, -15.00000000000000000 ) ) ;
#518 = ORIENTED_EDGE ( 'NONE', *, *, #692, .F. ) ;
#519 = CARTESIAN_POINT ( 'NONE',  ( 36.00000000000000000, 6.000000000000000000, -24.99999999999999645 ) ) ;
#520 = LINE ( 'NONE', #765, #387 ) ;
#521 = DIRECTION ( 'NONE',  ( 0.000000000000000000, 1.000000000000000000, 0.000000000000000000 ) ) ;
#522 = EDGE_CURVE ( 'NONE', #23, #89, #190, .T. ) ;
#523 = DIRECTION ( 'NONE',  ( -0.000000000000000000, -1.000000000000000000, -0.000000000000000000 ) ) ;
#524 = EDGE_LOOP ( 'NONE', ( #380, #239, #28, #50 ) ) ;
#525 = CARTESIAN_POINT ( 'NONE',  ( 36.00000000000020606, 6.000000000000000000, -3.399999999999999467 ) ) ;
#526 = CARTESIAN_POINT ( 'NONE',  ( 25.75000000000000355, 0.000000000000000000, -17.10000000000000142 ) ) ;
#527 = PLANE ( 'NONE',  #298 ) ;
#528 = DIRECTION ( 'NONE',  ( -0.000000000000000000, -1.000000000000000000, -0.000000000000000000 ) ) ;
#529 = CARTESIAN_POINT ( 'NONE',  ( 0.000000000000000000, 6.000000000000000000, 0.000000000000000000 ) ) ;
#530 = AXIS2_PLACEMENT_3D ( 'NONE', #362, #80, #312 ) ;
#531 = AXIS2_PLACEMENT_3D ( 'NONE', #408, #463, #117 ) ;
#532 = DIRECTION ( 'NONE',  ( 0.000000000000000000, 1.000000000000000000, -0.000000000000000000 ) ) ;
#533 = VERTEX_POINT ( 'NONE', #612 ) ;
#534 = FACE_OUTER_BOUND ( 'NONE', #510, .T. ) ;
#535 = PLANE ( 'NONE',  #659 ) ;
#536 = ORIENTED_EDGE ( 'NONE', *, *, #522, .F. ) ;
#537 = LINE ( 'NONE', #602, #40 ) ;
#538 = CARTESIAN_POINT ( 'NONE',  ( 6.250000000000000000, 0.000000000000000000, -15.00000000000000000 ) ) ;
#539 = CYLINDRICAL_SURFACE ( 'NONE', #401, 1.599999999999998090 ) ;
#540 = PRODUCT ( 'j4', 'j4', '', ( #357 ) ) ;
#541 = CARTESIAN_POINT ( 'NONE',  ( 16.00000000000000000, 6.000000000000000000, -23.15000000000000213 ) ) ;
#542 = EDGE_CURVE ( 'NONE', #758, #210, #324, .T. ) ;
#543 = AXIS2_PLACEMENT_3D ( 'NONE', #346, #593, #177 ) ;
#544 = DIRECTION ( 'NONE',  ( 0.000000000000000000, 0.000000000000000000, 1.000000000000000000 ) ) ;
#545 = CIRCLE ( 'NONE', #10, 1.600000000000000755 ) ;
#546 = DIRECTION ( 'NONE',  ( 0.000000000000000000, 0.000000000000000000, 1.000000000000000000 ) ) ;
#547 = DIRECTION ( 'NONE',  ( -0.000000000000000000, -1.000000000000000000, -0.000000000000000000 ) ) ;
#548 = DIRECTION ( 'NONE',  ( 0.000000000000000000, 0.000000000000000000, -1.000000000000000000 ) ) ;
#549 = DIRECTION ( 'NONE',  ( 0.000000000000000000, 1.000000000000000000, -0.000000000000000000 ) ) ;
#550 = EDGE_CURVE ( 'NONE', #533, #3, #196, .T. ) ;
#551 = CARTESIAN_POINT ( 'NONE',  ( 36.00000000000009948, 6.000000000000000000, -14.99999999999999822 ) ) ;
#552 =( LENGTH_UNIT ( ) NAMED_UNIT ( * ) SI_UNIT ( .MILLI., .METRE. ) );
#553 = VECTOR ( 'NONE', #276, 1000.000000000000000 ) ;
#554 = CIRCLE ( 'NONE', #107, 1.599999999999997202 ) ;
#555 = EDGE_CURVE ( 'NONE', #397, #322, #725, .T. ) ;
#556 = CARTESIAN_POINT ( 'NONE',  ( 16.00000000000000000, 6.000000000000000000, -15.00000000000000000 ) ) ;
#557 = DIRECTION ( 'NONE',  ( 0.000000000000000000, 1.000000000000000000, -0.000000000000000000 ) ) ;
#558 = ORIENTED_EDGE ( 'NONE', *, *, #251, .F. ) ;
#559 = VERTEX_POINT ( 'NONE', #78 ) ;
#560 = EDGE_LOOP ( 'NONE', ( #313, #465 ) ) ;
#561 = ORIENTED_EDGE ( 'NONE', *, *, #259, .F. ) ;
#562 = DIRECTION ( 'NONE',  ( 0.000000000000000000, 0.000000000000000000, -1.000000000000000000 ) ) ;
#563 = ADVANCED_FACE ( 'NONE', ( #431 ), #730, .F. ) ;
#564 = EDGE_LOOP ( 'NONE', ( #688, #286 ) ) ;
#565 = APPLICATION_CONTEXT ( 'automotive_design' ) ;
#566 = ORIENTED_EDGE ( 'NONE', *, *, #266, .T. ) ;
#567 = VECTOR ( 'NONE', #547, 1000.000000000000000 ) ;
#568 = AXIS2_PLACEMENT_3D ( 'NONE', #609, #665, #601 ) ;
#569 = CIRCLE ( 'NONE', #670, 1.600000000000000755 ) ;
#570 = EDGE_LOOP ( 'NONE', ( #331, #438 ) ) ;
#571 = DIRECTION ( 'NONE',  ( 0.000000000000000000, 1.000000000000000000, -0.000000000000000000 ) ) ;
#572 = FACE_BOUND ( 'NONE', #77, .T. ) ;
#573 = ORIENTED_EDGE ( 'NONE', *, *, #296, .F. ) ;
#574 = CARTESIAN_POINT ( 'NONE',  ( 16.00956587608467174, 0.000000000000000000, -6.850004692615756952 ) ) ;
#575 = ORIENTED_EDGE ( 'NONE', *, *, #234, .T. ) ;
#576 = CARTESIAN_POINT ( 'NONE',  ( 0.000000000000000000, 6.000000000000000000, -30.00000000000000000 ) ) ;
#577 = VECTOR ( 'NONE', #130, 1000.000000000000000 ) ;
#578 = EDGE_CURVE ( 'NONE', #444, #46, #60, .T. ) ;
#579 = AXIS2_PLACEMENT_3D ( 'NONE', #738, #300, #546 ) ;
#580 = AXIS2_PLACEMENT_3D ( 'NONE', #350, #600, #189 ) ;
#581 = LINE ( 'NONE', #341, #185 ) ;
#582 = ORIENTED_EDGE ( 'NONE', *, *, #441, .F. ) ;
#583 = CYLINDRICAL_SURFACE ( 'NONE', #20, 1.600000000000001643 ) ;
#584 = DIRECTION ( 'NONE',  ( 1.000000000000000000, -0.000000000000000000, 0.000000000000000000 ) ) ;
#585 = FACE_BOUND ( 'NONE', #385, .T. ) ;
#586 = VERTEX_POINT ( 'NONE', #541 ) ;
#587 = DIRECTION ( 'NONE',  ( -1.000000000000000000, 0.000000000000000000, 0.000000000000000000 ) ) ;
#588 = CYLINDRICAL_SURFACE ( 'NONE', #405, 1.599999999999998979 ) ;
#589 = DIRECTION ( 'NONE',  ( 0.000000000000000000, 0.000000000000000000, 1.000000000000000000 ) ) ;
#590 = DIRECTION ( 'NONE',  ( 0.000000000000000000, 0.000000000000000000, 1.000000000000000000 ) ) ;
#591 = ORIENTED_EDGE ( 'NONE', *, *, #654, .T. ) ;
#592 = ADVANCED_FACE ( 'NONE', ( #192 ), #742, .F. ) ;
#593 = DIRECTION ( 'NONE',  ( 0.000000000000000000, 1.000000000000000000, 0.000000000000000000 ) ) ;
#594 = CARTESIAN_POINT ( 'NONE',  ( 36.00000000000020606, 6.000000000000000000, -6.599999999999995204 ) ) ;
#595 = VECTOR ( 'NONE', #666, 1000.000000000000000 ) ;
#596 = LINE ( 'NONE', #727, #775 ) ;
#597 = DIRECTION ( 'NONE',  ( -0.000000000000000000, -1.000000000000000000, -0.000000000000000000 ) ) ;
#598 = ORIENTED_EDGE ( 'NONE', *, *, #147, .F. ) ;
#599 = DIRECTION ( 'NONE',  ( -0.000000000000000000, -1.000000000000000000, -0.000000000000000000 ) ) ;
#600 = DIRECTION ( 'NONE',  ( 0.000000000000000000, 0.000000000000000000, 1.000000000000000000 ) ) ;
#601 = DIRECTION ( 'NONE',  ( 0.000000000000000000, 0.000000000000000000, -1.000000000000000000 ) ) ;
#602 = CARTESIAN_POINT ( 'NONE',  ( 36.00000000000009948, 6.000000000000000000, -16.59999999999999787 ) ) ;
#603 = CARTESIAN_POINT ( 'NONE',  ( 36.00000000000020606, 6.000000000000000000, -3.399999999999999467 ) ) ;
#604 = VECTOR ( 'NONE', #773, 1000.000000000000000 ) ;
#605 = CARTESIAN_POINT ( 'NONE',  ( 36.00000000000020606, 0.000000000000000000, -4.999999999999997335 ) ) ;
#606 = AXIS2_PLACEMENT_3D ( 'NONE', #485, #258, #424 ) ;
#607 = CARTESIAN_POINT ( 'NONE',  ( 39.00000000000000000, 0.000000000000000000, -30.00000000000000000 ) ) ;
#608 = DIRECTION ( 'NONE',  ( 0.000000000000000000, 0.000000000000000000, -1.000000000000000000 ) ) ;
#609 = CARTESIAN_POINT ( 'NONE',  ( 6.250000000000000000, 6.000000000000000000, -15.00000000000000000 ) ) ;
#610 = EDGE_CURVE ( 'NONE', #205, #442, #671, .T. ) ;
#611 = EDGE_LOOP ( 'NONE', ( #94, #326 ) ) ;
#612 = CARTESIAN_POINT ( 'NONE',  ( 36.00000000000000000, 0.000000000000000000, -26.59999999999999432 ) ) ;
#613 = DIRECTION ( 'NONE',  ( 0.000000000000000000, 0.000000000000000000, 1.000000000000000000 ) ) ;
#614 = EDGE_LOOP ( 'NONE', ( #754, #162, #317, #660 ) ) ;
#615 =( GEOMETRIC_REPRESENTATION_CONTEXT ( 3 ) GLOBAL_UNCERTAINTY_ASSIGNED_CONTEXT ( ( #83 ) ) GLOBAL_UNIT_ASSIGNED_CONTEXT ( ( #315, #502, #445 ) ) REPRESENTATION_CONTEXT ( 'NONE', 'WORKASPACE' ) );
#616 = ORIENTED_EDGE ( 'NONE', *, *, #493, .T. ) ;
#617 = LINE ( 'NONE', #398, #421 ) ;
#618 = CYLINDRICAL_SURFACE ( 'NONE', #268, 1.599999999999998979 ) ;
#619 = ORIENTED_EDGE ( 'NONE', *, *, #578, .F. ) ;
#620 = VERTEX_POINT ( 'NONE', #244 ) ;
#621 = ORIENTED_EDGE ( 'NONE', *, *, #6, .T. ) ;
#622 = DIRECTION ( 'NONE',  ( -0.000000000000000000, -1.000000000000000000, -0.000000000000000000 ) ) ;
#623 = EDGE_CURVE ( 'NONE', #689, #381, #554, .T. ) ;
#624 = ORIENTED_EDGE ( 'NONE', *, *, #452, .F. ) ;
#625 = VERTEX_POINT ( 'NONE', #305 ) ;
#626 = EDGE_LOOP ( 'NONE', ( #155, #691, #272, #696 ) ) ;
#627 = EDGE_CURVE ( 'NONE', #36, #458, #17, .T. ) ;
#628 = ORIENTED_EDGE ( 'NONE', *, *, #432, .T. ) ;
#629 = VERTEX_POINT ( 'NONE', #129 ) ;
#630 = VECTOR ( 'NONE', #652, 1000.000000000000000 ) ;
#631 = AXIS2_PLACEMENT_3D ( 'NONE', #174, #113, #589 ) ;
#632 = ADVANCED_FACE ( 'NONE', ( #136 ), #8, .F. ) ;
#633 = DIRECTION ( 'NONE',  ( 0.000000000000000000, 0.000000000000000000, -1.000000000000000000 ) ) ;
#634 = EDGE_LOOP ( 'NONE', ( #225, #616, #379, #598 ) ) ;
#635 = ORIENTED_EDGE ( 'NONE', *, *, #732, .F. ) ;
#636 = ORIENTED_EDGE ( 'NONE', *, *, #35, .T. ) ;
#637 = ADVANCED_FACE ( 'NONE', ( #497 ), #310, .F. ) ;
#638 = DIRECTION ( 'NONE',  ( 0.000000000000000000, 0.000000000000000000, -1.000000000000000000 ) ) ;
#639 = PRODUCT_DEFINITION_CONTEXT ( 'detailed design', #565, 'design' ) ;
#640 = FACE_BOUND ( 'NONE', #570, .T. ) ;
#641 = EDGE_LOOP ( 'NONE', ( #752, #412, #270, #163 ) ) ;
#642 = AXIS2_PLACEMENT_3D ( 'NONE', #393, #532, #762 ) ;
#643 = CYLINDRICAL_SURFACE ( 'NONE', #446, 2.100000000000000977 ) ;
#644 = CIRCLE ( 'NONE', #669, 1.599999999999997202 ) ;
#645 = FACE_BOUND ( 'NONE', #744, .T. ) ;
#646 = EDGE_LOOP ( 'NONE', ( #561, #511, #88, #213 ) ) ;
#647 = DIRECTION ( 'NONE',  ( 0.000000000000000000, 0.000000000000000000, -1.000000000000000000 ) ) ;
#648 = CARTESIAN_POINT ( 'NONE',  ( 36.00000000000000000, 6.000000000000000000, -23.40000000000000213 ) ) ;
#649 = ADVANCED_FACE ( 'NONE', ( #678 ), #141, .F. ) ;
#650 = LINE ( 'NONE', #38, #553 ) ;
#651 = ORIENTED_EDGE ( 'NONE', *, *, #266, .F. ) ;
#652 = DIRECTION ( 'NONE',  ( -0.000000000000000000, -1.000000000000000000, -0.000000000000000000 ) ) ;
#653 = CARTESIAN_POINT ( 'NONE',  ( 36.00000000000009948, 0.000000000000000000, -16.59999999999999787 ) ) ;
#654 = EDGE_CURVE ( 'NONE', #697, #235, #361, .T. ) ;
#655 = CARTESIAN_POINT ( 'NONE',  ( 36.00000000000009948, 6.000000000000000000, -16.59999999999999787 ) ) ;
#656 = CARTESIAN_POINT ( 'NONE',  ( 0.000000000000000000, 6.000000000000000000, 0.000000000000000000 ) ) ;
#657 = VECTOR ( 'NONE', #297, 1000.000000000000000 ) ;
#658 = AXIS2_PLACEMENT_3D ( 'NONE', #686, #303, #371 ) ;
#659 = AXIS2_PLACEMENT_3D ( 'NONE', #662, #584, #238 ) ;
#660 = ORIENTED_EDGE ( 'NONE', *, *, #672, .T. ) ;
#661 = CARTESIAN_POINT ( 'NONE',  ( 39.00000000000000000, 6.000000000000000000, 0.000000000000000000 ) ) ;
#662 = CARTESIAN_POINT ( 'NONE',  ( 0.000000000000000000, 6.000000000000000000, 0.000000000000000000 ) ) ;
#663 = DIRECTION ( 'NONE',  ( 0.000000000000000000, 1.000000000000000000, 0.000000000000000000 ) ) ;
#664 = PRODUCT_RELATED_PRODUCT_CATEGORY ( 'part', '', ( #540 ) ) ;
#665 = DIRECTION ( 'NONE',  ( -0.000000000000000000, -1.000000000000000000, -0.000000000000000000 ) ) ;
#666 = DIRECTION ( 'NONE',  ( 0.000000000000000000, 0.000000000000000000, -1.000000000000000000 ) ) ;
#667 = DIRECTION ( 'NONE',  ( 0.000000000000000000, 0.000000000000000000, -1.000000000000000000 ) ) ;
#668 = VECTOR ( 'NONE', #699, 1000.000000000000000 ) ;
#669 = AXIS2_PLACEMENT_3D ( 'NONE', #5, #720, #411 ) ;
#670 = AXIS2_PLACEMENT_3D ( 'NONE', #462, #706, #112 ) ;
#671 = LINE ( 'NONE', #302, #243 ) ;
#672 = EDGE_CURVE ( 'NONE', #29, #443, #131, .T. ) ;
#673 = CYLINDRICAL_SURFACE ( 'NONE', #759, 1.600000000000000755 ) ;
#674 = CARTESIAN_POINT ( 'NONE',  ( 6.250000000000000000, 0.000000000000000000, -12.89999999999999858 ) ) ;
#675 = DIRECTION ( 'NONE',  ( 0.000000000000000000, 1.000000000000000000, 0.000000000000000000 ) ) ;
#676 = ORIENTED_EDGE ( 'NONE', *, *, #199, .F. ) ;
#677 = ORIENTED_EDGE ( 'NONE', *, *, #156, .F. ) ;
#678 = FACE_OUTER_BOUND ( 'NONE', #96, .T. ) ;
#679 = DIRECTION ( 'NONE',  ( 0.000000000000000000, 0.000000000000000000, -1.000000000000000000 ) ) ;
#680 = CLOSED_SHELL ( 'NONE', ( #14, #223, #756, #592, #690, #721, #328, #563, #55, #2, #358, #632, #67, #681, #85, #304, #649, #293, #388, #637, #716, #138 ) ) ;
#681 = ADVANCED_FACE ( 'NONE', ( #226 ), #343, .F. ) ;
#682 = ORIENTED_EDGE ( 'NONE', *, *, #441, .T. ) ;
#683 = VECTOR ( 'NONE', #597, 1000.000000000000000 ) ;
#684 = ORIENTED_EDGE ( 'NONE', *, *, #182, .F. ) ;
#685 = FACE_OUTER_BOUND ( 'NONE', #104, .T. ) ;
#686 = CARTESIAN_POINT ( 'NONE',  ( 16.00956587608467174, 6.000000000000000000, -5.250004692615755530 ) ) ;
#687 = ORIENTED_EDGE ( 'NONE', *, *, #164, .T. ) ;
#688 = ORIENTED_EDGE ( 'NONE', *, *, #325, .T. ) ;
#689 = VERTEX_POINT ( 'NONE', #332 ) ;
#690 = ADVANCED_FACE ( 'NONE', ( #685 ), #583, .F. ) ;
#691 = ORIENTED_EDGE ( 'NONE', *, *, #320, .T. ) ;
#692 = EDGE_CURVE ( 'NONE', #89, #505, #319, .T. ) ;
#693 = ORIENTED_EDGE ( 'NONE', *, *, #399, .F. ) ;
#694 = ORIENTED_EDGE ( 'NONE', *, *, #550, .T. ) ;
#695 = EDGE_CURVE ( 'NONE', #449, #559, #457, .T. ) ;
#696 = ORIENTED_EDGE ( 'NONE', *, *, #153, .F. ) ;
#697 = VERTEX_POINT ( 'NONE', #525 ) ;
#698 = DIRECTION ( 'NONE',  ( 0.000000000000000000, 0.000000000000000000, -1.000000000000000000 ) ) ;
#699 = DIRECTION ( 'NONE',  ( -0.000000000000000000, -1.000000000000000000, -0.000000000000000000 ) ) ;
#700 = EDGE_LOOP ( 'NONE', ( #687, #201 ) ) ;
#701 = DIRECTION ( 'NONE',  ( 1.000000000000000000, 0.000000000000000000, 0.000000000000000000 ) ) ;
#702 = DIRECTION ( 'NONE',  ( 0.000000000000000000, 1.000000000000000000, 0.000000000000000000 ) ) ;
#703 = UNCERTAINTY_MEASURE_WITH_UNIT (LENGTH_MEASURE( 1.000000000000000082E-05 ), #552, 'distance_accuracy_value', 'NONE');
#704 = DIRECTION ( 'NONE',  ( 0.000000000000000000, -1.000000000000000000, 0.000000000000000000 ) ) ;
#705 = ORIENTED_EDGE ( 'NONE', *, *, #578, .T. ) ;
#706 = DIRECTION ( 'NONE',  ( 0.000000000000000000, 1.000000000000000000, 0.000000000000000000 ) ) ;
#707 = EDGE_CURVE ( 'NONE', #180, #29, #221, .T. ) ;
#708 = CIRCLE ( 'NONE', #253, 2.100000000000000977 ) ;
#709 = DIRECTION ( 'NONE',  ( -0.000000000000000000, -0.000000000000000000, 1.000000000000000000 ) ) ;
#710 = VECTOR ( 'NONE', #709, 1000.000000000000000 ) ;
#711 = FACE_BOUND ( 'NONE', #33, .T. ) ;
#712 = ORIENTED_EDGE ( 'NONE', *, *, #542, .T. ) ;
#713 = CARTESIAN_POINT ( 'NONE',  ( 16.00000000000000000, 6.000000000000000000, -16.60000000000000142 ) ) ;
#714 = FACE_OUTER_BOUND ( 'NONE', #124, .T. ) ;
#715 = ADVANCED_BREP_SHAPE_REPRESENTATION ( 'j4', ( #308, #580 ), #615 ) ;
#716 = ADVANCED_FACE ( 'NONE', ( #263 ), #588, .F. ) ;
#717 = DIRECTION ( 'NONE',  ( -0.000000000000000000, -1.000000000000000000, -0.000000000000000000 ) ) ;
#718 = VERTEX_POINT ( 'NONE', #165 ) ;
#719 = DIRECTION ( 'NONE',  ( 0.000000000000000000, 0.000000000000000000, -1.000000000000000000 ) ) ;
#720 = DIRECTION ( 'NONE',  ( 0.000000000000000000, 1.000000000000000000, 0.000000000000000000 ) ) ;
#721 = ADVANCED_FACE ( 'NONE', ( #47 ), #279, .F. ) ;
#722 = ORIENTED_EDGE ( 'NONE', *, *, #432, .F. ) ;
#723 = DIRECTION ( 'NONE',  ( 0.000000000000000000, 0.000000000000000000, 1.000000000000000000 ) ) ;
#724 = AXIS2_PLACEMENT_3D ( 'NONE', #605, #503, #22 ) ;
#725 = CIRCLE ( 'NONE', #365, 2.100000000000000977 ) ;
#726 = EDGE_CURVE ( 'NONE', #442, #448, #569, .T. ) ;
#727 = CARTESIAN_POINT ( 'NONE',  ( 0.000000000000000000, 0.000000000000000000, 0.000000000000000000 ) ) ;
#728 = DIRECTION ( 'NONE',  ( 0.000000000000000000, 1.000000000000000000, 0.000000000000000000 ) ) ;
#729 = CARTESIAN_POINT ( 'NONE',  ( 0.000000000000000000, 0.000000000000000000, -30.00000000000000000 ) ) ;
#730 = CYLINDRICAL_SURFACE ( 'NONE', #777, 1.600000000000000755 ) ;
#731 =( NAMED_UNIT ( * ) PLANE_ANGLE_UNIT ( ) SI_UNIT ( $, .RADIAN. ) );
#732 = EDGE_CURVE ( 'NONE', #501, #23, #52, .T. ) ;
#733 = CARTESIAN_POINT ( 'NONE',  ( 25.75000000000000355, 6.000000000000000000, -17.10000000000000142 ) ) ;
#734 = CIRCLE ( 'NONE', #71, 1.599999999999997202 ) ;
#735 = SURFACE_STYLE_FILL_AREA ( #144 ) ;
#736 = CIRCLE ( 'NONE', #631, 1.600000000000002531 ) ;
#737 = AXIS2_PLACEMENT_3D ( 'NONE', #764, #745, #774 ) ;
#738 = CARTESIAN_POINT ( 'NONE',  ( 36.00000000000000000, 6.000000000000000000, -24.99999999999999645 ) ) ;
#739 = DIRECTION ( 'NONE',  ( -0.000000000000000000, -1.000000000000000000, -0.000000000000000000 ) ) ;
#740 = ORIENTED_EDGE ( 'NONE', *, *, #372, .T. ) ;
#741 = EDGE_LOOP ( 'NONE', ( #355, #591, #459, #693 ) ) ;
#742 = CYLINDRICAL_SURFACE ( 'NONE', #420, 2.100000000000000977 ) ;
#743 = DIRECTION ( 'NONE',  ( 0.000000000000000000, 1.000000000000000000, 0.000000000000000000 ) ) ;
#744 = EDGE_LOOP ( 'NONE', ( #383, #176 ) ) ;
#745 = DIRECTION ( 'NONE',  ( 0.000000000000000000, 1.000000000000000000, 0.000000000000000000 ) ) ;
#746 = CARTESIAN_POINT ( 'NONE',  ( 16.00000000000000000, 6.000000000000000000, -16.60000000000000142 ) ) ;
#747 = AXIS2_PLACEMENT_3D ( 'NONE', #390, #704, #170 ) ;
#748 = EDGE_CURVE ( 'NONE', #267, #629, #389, .T. ) ;
#749 = ORIENTED_EDGE ( 'NONE', *, *, #707, .T. ) ;
#750 = CIRCLE ( 'NONE', #208, 2.100000000000000977 ) ;
#751 = ORIENTED_EDGE ( 'NONE', *, *, #654, .F. ) ;
#752 = ORIENTED_EDGE ( 'NONE', *, *, #296, .T. ) ;
#753 = EDGE_LOOP ( 'NONE', ( #751, #454, #384, #651 ) ) ;
#754 = ORIENTED_EDGE ( 'NONE', *, *, #478, .T. ) ;
#755 = ORIENTED_EDGE ( 'NONE', *, *, #168, .F. ) ;
#756 = ADVANCED_FACE ( 'NONE', ( #714 ), #395, .F. ) ;
#757 = CARTESIAN_POINT ( 'NONE',  ( 0.000000000000000000, 6.000000000000000000, -30.00000000000000000 ) ) ;
#758 = VERTEX_POINT ( 'NONE', #167 ) ;
#759 = AXIS2_PLACEMENT_3D ( 'NONE', #440, #204, #679 ) ;
#760 = AXIS2_PLACEMENT_3D ( 'NONE', #16, #19, #638 ) ;
#761 = VECTOR ( 'NONE', #439, 1000.000000000000000 ) ;
#762 = DIRECTION ( 'NONE',  ( 0.000000000000000000, 0.000000000000000000, -1.000000000000000000 ) ) ;
#763 = ORIENTED_EDGE ( 'NONE', *, *, #340, .F. ) ;
#764 = CARTESIAN_POINT ( 'NONE',  ( 16.00000000000000000, 6.000000000000000000, -15.00000000000000000 ) ) ;
#765 = CARTESIAN_POINT ( 'NONE',  ( 36.00000000000000000, 6.000000000000000000, -26.59999999999999432 ) ) ;
#766 = FACE_BOUND ( 'NONE', #560, .T. ) ;
#767 = ORIENTED_EDGE ( 'NONE', *, *, #478, .F. ) ;
#768 = EDGE_CURVE ( 'NONE', #180, #505, #617, .T. ) ;
#769 = CARTESIAN_POINT ( 'NONE',  ( 6.250000000000000000, 6.000000000000000000, -15.00000000000000000 ) ) ;
#770 = DIRECTION ( 'NONE',  ( 0.000000000000000000, 0.000000000000000000, 1.000000000000000000 ) ) ;
#771 = CARTESIAN_POINT ( 'NONE',  ( 0.000000000000000000, 6.000000000000000000, 0.000000000000000000 ) ) ;
#772 = ORIENTED_EDGE ( 'NONE', *, *, #134, .F. ) ;
#773 = DIRECTION ( 'NONE',  ( -1.000000000000000000, -0.000000000000000000, -0.000000000000000000 ) ) ;
#774 = DIRECTION ( 'NONE',  ( 0.000000000000000000, 0.000000000000000000, 1.000000000000000000 ) ) ;
#775 = VECTOR ( 'NONE', #62, 1000.000000000000000 ) ;
#776 = CARTESIAN_POINT ( 'NONE',  ( 25.75000000000000355, 6.000000000000000000, -15.00000000000000000 ) ) ;
#777 = AXIS2_PLACEMENT_3D ( 'NONE', #556, #492, #195 ) ;
#778 = DIRECTION ( 'NONE',  ( -0.000000000000000000, -1.000000000000000000, -0.000000000000000000 ) ) ;
#779 = DIRECTION ( 'NONE',  ( 0.000000000000000000, 0.000000000000000000, 1.000000000000000000 ) ) ;
ENDSEC;
END-ISO-10303-21;
